<?xml version="1.0" encoding="UTF-8"?>
<svg version="1.1" xmlns="http://www.w3.org/2000/svg" width="562" height="155">
<path d="M0 0 C1.1859375 0.00257812 2.371875 0.00515625 3.59375 0.0078125 C4.7796875 0.00523438 5.965625 0.00265625 7.1875 0 C10.09375 0.1328125 10.09375 0.1328125 11.09375 1.1328125 C11.18075342 2.76754132 11.20076063 4.40595305 11.19140625 6.04296875 C11.18818359 7.03232422 11.18496094 8.02167969 11.18164062 9.04101562 C11.17326172 10.08193359 11.16488281 11.12285156 11.15625 12.1953125 C11.15173828 13.24009766 11.14722656 14.28488281 11.14257812 15.36132812 C11.13074927 17.95184704 11.11281319 20.54233672 11.09375 23.1328125 C17.36375 22.8028125 23.63375 22.4728125 30.09375 22.1328125 C30.42375 15.2028125 30.75375 8.2728125 31.09375 1.1328125 C40.77796053 -0.07771382 40.77796053 -0.07771382 45.09375 0.1328125 C46.8119809 1.8510434 46.22129321 4.11878999 46.22314453 6.46289062 C46.22629669 7.60077026 46.22944885 8.7386499 46.23269653 9.91101074 C46.2306723 11.14951782 46.22864807 12.3880249 46.2265625 13.6640625 C46.22751923 14.92545044 46.22847595 16.18683838 46.22946167 17.4864502 C46.23014375 20.15978388 46.22878529 22.83302687 46.22412109 25.50634766 C46.21842381 28.93987941 46.22170301 32.373333 46.22769356 35.80686188 C46.23216762 39.07176493 46.22903883 42.33665843 46.2265625 45.6015625 C46.22858673 46.84006958 46.23061096 48.07857666 46.23269653 49.35461426 C46.22796829 51.06143372 46.22796829 51.06143372 46.22314453 52.80273438 C46.22234894 53.81009644 46.22155334 54.8174585 46.22073364 55.85534668 C46.09375 58.1328125 46.09375 58.1328125 45.09375 59.1328125 C40.42529772 59.27707864 35.76509047 59.17489665 31.09375 59.1328125 C30.76375 51.8728125 30.43375 44.6128125 30.09375 37.1328125 C23.82375 37.1328125 17.55375 37.1328125 11.09375 37.1328125 C11.10535156 38.55335937 11.11695313 39.97390625 11.12890625 41.4375 C11.13828387 43.29426952 11.1473841 45.15104046 11.15625 47.0078125 C11.16462891 47.94496094 11.17300781 48.88210937 11.18164062 49.84765625 C11.18486328 50.74355469 11.18808594 51.63945313 11.19140625 52.5625 C11.19664307 53.38991699 11.20187988 54.21733398 11.20727539 55.06982422 C11.09375 57.1328125 11.09375 57.1328125 10.09375 59.1328125 C5.47375 59.1328125 0.85375 59.1328125 -3.90625 59.1328125 C-3.92880549 51.58782661 -3.94716769 44.04285319 -3.95806217 36.49784184 C-3.96328989 32.99472365 -3.9703855 29.49162965 -3.98168945 25.98852539 C-3.99459206 21.96500409 -3.99947912 17.94150836 -4.00390625 13.91796875 C-4.01164818 12.02269188 -4.01164818 12.02269188 -4.01954651 10.08912659 C-4.01962204 8.9279985 -4.01969757 7.76687042 -4.01977539 6.57055664 C-4.02310631 5.0283419 -4.02310631 5.0283419 -4.02650452 3.45497131 C-3.84677378 -0.01569511 -3.52656856 0.16116039 0 0 Z " fill="#FDFDFE" transform="translate(388.90625,48.8671875)"/>
<path d="M0 0 C0.94213867 1.80322266 0.94213867 1.80322266 1.91796875 4.1640625 C2.28156494 5.03119873 2.64516113 5.89833496 3.01977539 6.79174805 C3.40512451 7.72672119 3.79047363 8.66169434 4.1875 9.625 C5.00071378 11.56199265 5.81582882 13.49818815 6.6328125 15.43359375 C7.23657715 16.86421143 7.23657715 16.86421143 7.85253906 18.32373047 C9.34993285 21.81616253 10.93978436 25.25138093 12.5625 28.6875 C15.22502142 34.33754546 17.8599139 39.99811011 20.4375 45.6875 C20.79207275 46.45473389 21.14664551 47.22196777 21.51196289 48.01245117 C21.83672607 48.73408447 22.16148926 49.45571777 22.49609375 50.19921875 C22.78669678 50.83690186 23.0772998 51.47458496 23.37670898 52.1315918 C24 54 24 54 24 58 C19.05 58 14.1 58 9 58 C8.01 55.03 7.02 52.06 6 49 C-2.91 49 -11.82 49 -21 49 C-21.66 51.31 -22.32 53.62 -23 56 C-25 58 -25 58 -28.2578125 58.1953125 C-30.17207031 58.16050781 -30.17207031 58.16050781 -32.125 58.125 C-34.04699219 58.09792969 -34.04699219 58.09792969 -36.0078125 58.0703125 C-36.99523437 58.04710937 -37.98265625 58.02390625 -39 58 C-38.33415673 53.49417136 -36.64968231 49.58187002 -34.796875 45.4609375 C-34.31737396 44.37868393 -34.31737396 44.37868393 -33.82818604 43.27456665 C-32.80685195 40.97257562 -31.77849838 38.67379764 -30.75 36.375 C-30.07376496 34.85306613 -29.39797943 33.33093245 -28.72265625 31.80859375 C-25.52016533 24.59945768 -22.29370439 17.4031586 -18.97387695 10.24707031 C-17.99491798 7.98827403 -17.21054401 5.71093733 -16.4375 3.375 C-15.50390625 1.46484375 -15.50390625 1.46484375 -14 0 C-9.53835395 -1.16896351 -4.25333837 -2.12666919 0 0 Z M-8 19 C-10.92678249 24.55079437 -13.1668733 30.00067626 -15 36 C-12.23547967 37.38226016 -9.9538637 37.09525387 -6.875 37.0625 C-5.77929688 37.05347656 -4.68359375 37.04445313 -3.5546875 37.03515625 C-2.71164062 37.02355469 -1.86859375 37.01195313 -1 37 C0.35306884 32.94079348 -1.15400398 30.58134551 -2.8125 26.875 C-3.08642578 26.22917969 -3.36035156 25.58335938 -3.64257812 24.91796875 C-5.0557306 21.29589422 -5.0557306 21.29589422 -8 19 Z " fill="#FDFDFD" transform="translate(479,50)"/>
<path d="M0 0 C5.44606597 1.73332552 8.90826725 5.3442809 12.61328125 9.5703125 C10.59761553 14.30014197 8.24372026 15.49459846 3.61328125 17.5703125 C1.67578125 17.0078125 1.67578125 17.0078125 -0.38671875 15.5703125 C-5.48368256 12.989757 -5.48368256 12.989757 -10.88671875 13.3828125 C-11.62921875 13.970625 -11.62921875 13.970625 -12.38671875 14.5703125 C-12.52112653 16.99951115 -12.52112653 16.99951115 -11.38671875 19.5703125 C-8.19618632 21.03173311 -8.19618632 21.03173311 -5.77734375 21.765625 C0.9714556 24.03727968 6.96824751 27.08072718 11.61328125 32.5703125 C12.21140625 33.1478125 12.80953125 33.7253125 13.42578125 34.3203125 C15.35359392 37.97301019 15.11326532 41.53522976 14.61328125 45.5703125 C12.80615417 50.99169375 9.26611267 54.41778182 4.61328125 57.5703125 C-1.59709579 60.62868913 -9.22199352 60.79913892 -15.8359375 58.84765625 C-21.26516007 56.2933363 -25.06395708 52.554455 -28.38671875 47.5703125 C-28.38671875 46.2503125 -28.38671875 44.9303125 -28.38671875 43.5703125 C-27.1449518 42.86805109 -25.89286276 42.18402141 -24.63671875 41.5078125 C-23.940625 41.12496094 -23.24453125 40.74210937 -22.52734375 40.34765625 C-19.98139859 39.42312507 -18.87462584 39.56780142 -16.38671875 40.5703125 C-15.76796875 41.2303125 -15.14921875 41.8903125 -14.51171875 42.5703125 C-11.81214752 45.11108542 -10.04343108 45.34176798 -6.38671875 45.5703125 C-4.1102113 45.2125511 -4.1102113 45.2125511 -2.38671875 44.5703125 C-2.38671875 42.5903125 -2.38671875 40.6103125 -2.38671875 38.5703125 C-3.45921875 38.0340625 -4.53171875 37.4978125 -5.63671875 36.9453125 C-6.35859375 36.57921875 -7.08046875 36.213125 -7.82421875 35.8359375 C-9.68336585 34.91770021 -11.56120341 34.03700059 -13.44921875 33.1796875 C-24.10641572 28.21677715 -24.10641572 28.21677715 -26.38671875 22.5703125 C-27.6034356 17.6462839 -28.19804167 13.30055705 -25.76171875 8.6953125 C-18.77795267 -0.49385339 -11.06867916 -1.99272456 0 0 Z " fill="#FCFDFD" transform="translate(364.38671875,49.4296875)"/>
<path d="M0 0 C4.62 0 9.24 0 14 0 C26.93071551 27.3151801 26.93071551 27.3151801 30 39 C32.5840885 37.70795575 32.67887517 36.75177548 33.69921875 34.08984375 C34.17766235 32.86261597 34.17766235 32.86261597 34.66577148 31.6105957 C35.00294189 30.72847412 35.3401123 29.84635254 35.6875 28.9375 C36.39898429 27.11638237 37.11255894 25.29608016 37.828125 23.4765625 C38.18841797 22.56036133 38.54871094 21.64416016 38.91992188 20.70019531 C40.51812923 16.70467693 42.21024422 12.75367168 43.9375 8.8125 C44.23164795 8.13630615 44.5257959 7.4601123 44.82885742 6.76342773 C46.87084197 2.12915803 46.87084197 2.12915803 48 1 C50.53049402 0.92686433 53.03304837 0.90752473 55.5625 0.9375 C56.62887695 0.94426758 56.62887695 0.94426758 57.71679688 0.95117188 C59.47790013 0.96299136 61.23896036 0.98092737 63 1 C61.37766127 6.15671953 59.35803626 11.09121355 57.25 16.0625 C56.89292969 16.9073999 56.53585937 17.7522998 56.16796875 18.62280273 C53.74341886 24.32842472 51.21657271 29.97561188 48.578125 35.5859375 C47.32881744 38.28864741 46.11509757 40.99904194 44.921875 43.7265625 C44.56222656 44.54697021 44.20257813 45.36737793 43.83203125 46.21264648 C43.12250217 47.83550214 42.41664016 49.45996708 41.71484375 51.08618164 C41.39128906 51.82473389 41.06773437 52.56328613 40.734375 53.32421875 C40.44788086 53.98510498 40.16138672 54.64599121 39.86621094 55.3269043 C39 57 39 57 37 59 C34.3203125 59.40625 34.3203125 59.40625 31.125 59.5 C30.07570313 59.5515625 29.02640625 59.603125 27.9453125 59.65625 C25 59 25 59 22.828125 56.47265625 C20.83938321 52.69489675 19.17531402 48.91037678 17.625 44.9375 C15.5553958 39.77041219 13.43577541 34.6625519 11.0625 29.625 C8.48083233 24.10484881 6.02376416 18.53902424 3.625 12.9375 C3.26672119 12.11523926 2.90844238 11.29297852 2.53930664 10.44580078 C2.20922607 9.66833496 1.87914551 8.89086914 1.5390625 8.08984375 C1.24209473 7.39753662 0.94512695 6.70522949 0.63916016 5.99194336 C0 4 0 4 0 0 Z " fill="#FCFDFD" transform="translate(246,49)"/>
<path d="M0 0 C1.08667969 0.01804688 2.17335938 0.03609375 3.29296875 0.0546875 C4.54013672 0.08949219 4.54013672 0.08949219 5.8125 0.125 C7.03281898 4.87537667 6.93973661 9.49666264 6.91015625 14.36328125 C6.9087413 15.24404831 6.90732635 16.12481537 6.90586853 17.03227234 C6.90028937 19.83405003 6.88774071 22.63574662 6.875 25.4375 C6.86998231 27.34179572 6.86541987 29.24609269 6.86132812 31.15039062 C6.85032677 35.80862481 6.83307649 40.46679867 6.8125 45.125 C7.41312256 45.11976318 8.01374512 45.11452637 8.63256836 45.10913086 C11.33836838 45.08841986 14.04415177 45.07535875 16.75 45.0625 C17.69552734 45.05412109 18.64105469 45.04574219 19.61523438 45.03710938 C20.96391602 45.03227539 20.96391602 45.03227539 22.33984375 45.02734375 C23.58882446 45.01948853 23.58882446 45.01948853 24.86303711 45.01147461 C26.8125 45.125 26.8125 45.125 27.8125 46.125 C27.91123816 48.12299572 27.94221799 50.12457158 27.9375 52.125 C27.94136719 53.7646875 27.94136719 53.7646875 27.9453125 55.4375 C27.8125 58.125 27.8125 58.125 26.8125 59.125 C24.23060554 59.22591475 21.676035 59.26471499 19.09375 59.2578125 C17.93413757 59.25924759 17.93413757 59.25924759 16.75109863 59.26071167 C15.11352456 59.26139341 13.47594781 59.25953957 11.83837891 59.25537109 C9.32318079 59.25002271 6.80816127 59.25531626 4.29296875 59.26171875 C2.70572877 59.26105797 1.1184889 59.2597768 -0.46875 59.2578125 C-1.22603394 59.25983673 -1.98331787 59.26186096 -2.7635498 59.26394653 C-8.07254868 59.23995132 -8.07254868 59.23995132 -9.1875 58.125 C-9.29683299 56.3868027 -9.33657948 54.64417862 -9.34863281 52.90258789 C-9.35824036 51.7879567 -9.3678479 50.6733255 -9.37774658 49.5249176 C-9.3841214 47.70467323 -9.3841214 47.70467323 -9.390625 45.84765625 C-9.39632507 44.61083603 -9.40202515 43.37401581 -9.40789795 42.09971619 C-9.41736479 39.4777004 -9.42388858 36.85567263 -9.42773438 34.23364258 C-9.43213245 31.53786782 -9.44607047 28.84241073 -9.46875 26.14672852 C-9.49907625 22.27610455 -9.5097673 18.40588548 -9.515625 14.53515625 C-9.5279718 13.32368423 -9.5403186 12.11221222 -9.55303955 10.86402893 C-9.55003845 9.74624557 -9.54703735 8.62846222 -9.54394531 7.47680664 C-9.54759094 6.48943008 -9.55123657 5.50205353 -9.55499268 4.48475647 C-9.43372009 3.70603683 -9.31244751 2.9273172 -9.1875 2.125 C-5.66070901 -0.22619399 -4.15870515 -0.08943452 0 0 Z " fill="#FDFEFE" transform="translate(517.1875,48.875)"/>
<path d="M0 0 C4.23301121 2.82200747 7.17159664 5.95228992 8.8125 10.875 C9.35849854 10.8719838 9.90449707 10.86896759 10.46704102 10.86585999 C16.17835506 10.84119237 21.88800309 10.86556628 27.59912109 10.91772461 C29.72701059 10.93081981 31.85501399 10.93163957 33.98291016 10.91967773 C37.05223388 10.90459683 40.1184317 10.93445565 43.1875 10.97265625 C44.13052979 10.95840103 45.07355957 10.94414581 46.04516602 10.92945862 C52.17322856 11.06213049 55.4969835 12.35748224 59.87075806 16.66908264 C61.98780404 19.07415428 63.95811903 21.56211331 65.9284668 24.08862305 C72.96302857 32.85568141 79.44449431 40.21128279 90.98291016 41.67431641 C99.38268087 42.47505145 107.82558769 42.15774686 116.24023438 41.78051758 C120.26247178 41.62363055 124.28578 41.5901814 128.31054688 41.54492188 C136.15040407 41.43926349 143.97839892 41.20170427 151.8125 40.875 C152.375 42.8125 152.375 42.8125 152.8125 44.875 C147.82327446 49.86422554 125.39225467 47.33209103 118.3125 47.5 C117.5035881 47.5198634 116.69467621 47.53972679 115.86125183 47.56019211 C80.85708986 48.3238062 80.85708986 48.3238062 69.77148438 38.68798828 C65.17084067 34.1264657 61.41395124 28.90562286 58.22363281 23.28344727 C57.04021792 20.76150845 57.04021792 20.76150845 54.8125 19.875 C54.8125 19.215 54.8125 18.555 54.8125 17.875 C39.6325 17.545 24.4525 17.215 8.8125 16.875 C8.1525 18.855 7.4925 20.835 6.8125 22.875 C3.60170354 26.59276432 0.65532779 29.36735218 -4.265625 30.24609375 C-10.45290222 30.43527309 -14.47191362 28.90266554 -19.1875 24.875 C-22.23030571 21.14510914 -23.02239251 17.6631172 -23.1875 12.875 C-21.33437256 6.90381157 -18.40862258 3.20753704 -13.375 -0.4375 C-8.65882592 -1.91972614 -4.56216916 -1.61017735 0 0 Z M-15.1875 6.875 C-17.8665573 10.89358595 -17.88360694 14.15141721 -17.1875 18.875 C-15.39356332 21.74529869 -14.20486724 23.36631638 -11.1875 24.875 C-8.12838189 25.29570387 -5.24118926 25.35577115 -2.1875 24.875 C1.27647837 22.1480383 4.45779399 19.06235375 5.1875 14.5625 C4.53103822 9.85785727 2.07841774 6.84878287 -1.625 4 C-7.38651267 1.47055541 -10.35683496 3.11781608 -15.1875 6.875 Z " fill="#3B9EDC" transform="translate(65.1875,47.125)"/>
<path d="M0 0 C0.67328842 -0.00014603 1.34657684 -0.00029205 2.04026794 -0.0004425 C4.26955366 0.00025512 6.4987562 0.0080405 8.72802734 0.01586914 C10.27216547 0.01773385 11.81630419 0.01915751 13.36044312 0.02015686 C17.42766957 0.02397785 21.49486039 0.03380457 25.56207275 0.04486084 C29.71113605 0.05508395 33.86020509 0.05965641 38.00927734 0.06469727 C46.15252287 0.0754272 54.29573943 0.09249862 62.43896484 0.11352539 C63.42896484 2.09352539 63.42896484 2.09352539 64.43896484 4.11352539 C61.08856421 5.2303256 58.55828447 5.244857 55.02734375 5.25537109 C54.38144791 5.25884552 53.73555206 5.26231995 53.07008362 5.26589966 C51.66888919 5.27324478 50.26768322 5.27859679 48.86647415 5.28219032 C46.64683898 5.28936707 44.42742343 5.30504221 42.20785522 5.3235321 C35.89755247 5.37594688 29.58737128 5.42397709 23.27685547 5.43945312 C19.41522222 5.44954393 15.55414382 5.47889353 11.69272995 5.52077293 C10.22321141 5.53307058 8.75361447 5.53820643 7.28404617 5.5359745 C5.22522165 5.5336169 3.16798462 5.55581747 1.109375 5.58349609 C-0.06072113 5.58936234 -1.23081726 5.59522858 -2.43637085 5.60127258 C-7.81430175 6.48292256 -10.79602281 10.15909295 -14.18603516 14.17602539 C-15.304353 15.49422357 -16.42898206 16.80710393 -17.56103516 18.11352539 C-17.9757457 18.63917084 -18.39045624 19.16481628 -18.81773376 19.70639038 C-21.26546616 21.68211871 -22.98004429 21.50477771 -26.10229492 21.5300293 C-27.80404625 21.554879 -27.80404625 21.554879 -29.54017639 21.58023071 C-31.37774757 21.58511002 -31.37774757 21.58511002 -33.25244141 21.59008789 C-34.50862778 21.60566742 -35.76481415 21.62124695 -37.05906677 21.63729858 C-40.39728751 21.67683299 -43.73512785 21.70414716 -47.07348633 21.72479248 C-51.78203215 21.75633419 -56.49037331 21.80781441 -61.19871521 21.86117554 C-63.70603114 21.88847347 -66.21342031 21.90979347 -68.72084045 21.92471313 C-69.85218918 21.93497528 -70.9835379 21.94523743 -72.14916992 21.95581055 C-73.64783348 21.96555405 -73.64783348 21.96555405 -75.17677307 21.97549438 C-77.57707027 21.95705464 -77.57707027 21.95705464 -79.56103516 23.11352539 C-80.48676003 24.8053674 -81.41009255 26.4996191 -82.26806641 28.22680664 C-84.06629556 30.8508087 -85.88945359 32.38020026 -88.56103516 34.11352539 C-91.71728516 34.60961914 -91.71728516 34.60961914 -95.06103516 34.55102539 C-96.16447266 34.54973633 -97.26791016 34.54844727 -98.40478516 34.54711914 C-103.2856932 33.87659836 -105.7657271 32.10766046 -108.81103516 28.30102539 C-110.94347252 24.41694305 -112.15058078 21.56352236 -111.08447266 17.13305664 C-109.34036694 12.02531847 -107.14132378 7.66169856 -102.37353516 4.80102539 C-96.98844202 3.48466929 -91.81514222 3.1372739 -86.74853516 5.67602539 C-82.99619028 8.11068637 -81.4182226 11.10200051 -79.56103516 15.11352539 C-79.56103516 15.77352539 -79.56103516 16.43352539 -79.56103516 17.11352539 C-71.73172112 17.1480597 -63.90388377 17.12808509 -56.07470703 17.07080078 C-53.41261201 17.05379835 -50.75270433 17.05689776 -48.09033203 17.06884766 C-44.25674169 17.08388977 -40.4256695 17.05412462 -36.59228516 17.01586914 C-34.81682312 17.03725197 -34.81682312 17.03725197 -33.00549316 17.05906677 C-25.9461701 16.93627028 -22.06741132 15.96642683 -17.0718689 10.84727478 C-16.57329376 10.27513748 -16.07471863 9.70300018 -15.56103516 9.11352539 C-14.82111328 8.32204102 -14.08119141 7.53055664 -13.31884766 6.71508789 C-12.78001953 6.06282227 -12.24119141 5.41055664 -11.68603516 4.73852539 C-7.9024798 0.18066103 -5.95707781 -0.01083105 0 0 Z M-104.56103516 13.11352539 C-106.29111083 16.57367674 -106.04456246 20.33025094 -105.56103516 24.11352539 C-103.44711638 27.61242543 -102.44367456 28.81931225 -98.56103516 30.11352539 C-92.82403178 30.61904213 -92.82403178 30.61904213 -87.68603516 28.42602539 C-85.30764883 25.83778145 -84.17868275 24.58779312 -83.56103516 21.11352539 C-84.13153204 17.08393982 -85.09573321 13.46721957 -88.15087891 10.64477539 C-95.4126011 6.19558017 -98.89597182 7.70596493 -104.56103516 13.11352539 Z " fill="#2EA2EA" transform="translate(153.56103515625,110.886474609375)"/>
<path d="M0 0 C2.35694954 0.09031574 4.71153582 0.24688128 7.0625 0.4375 C8.35285156 0.53933594 9.64320313 0.64117187 10.97265625 0.74609375 C12.47119141 0.87177734 12.47119141 0.87177734 14 1 C14.02312883 8.41459942 14.04091785 15.82919111 14.05181217 23.24381924 C14.05703982 26.68640348 14.06413531 30.12896312 14.07543945 33.5715332 C14.08834235 37.52555043 14.09322918 41.47955756 14.09765625 45.43359375 C14.10281754 46.67523788 14.10797882 47.91688202 14.11329651 49.19615173 C14.11337204 50.33725906 14.11344757 51.47836639 14.11352539 52.65405273 C14.115746 53.664431 14.11796661 54.67480927 14.12025452 55.71580505 C14 58 14 58 13 59 C10.83519203 59.0989294 8.66706215 59.129711 6.5 59.125 C5.3140625 59.12757812 4.128125 59.13015625 2.90625 59.1328125 C0 59 0 59 -1 58 C-1.09893778 56.22553991 -1.12799092 54.44713749 -1.12939453 52.66992188 C-1.13254669 51.53204224 -1.13569885 50.3941626 -1.13894653 49.22180176 C-1.1369223 47.98329468 -1.13489807 46.7447876 -1.1328125 45.46875 C-1.13376923 44.20736206 -1.13472595 42.94597412 -1.13571167 41.6463623 C-1.13639375 38.97302862 -1.13503529 36.29978563 -1.13037109 33.62646484 C-1.12467381 30.19293309 -1.12795301 26.7594795 -1.13394356 23.32595062 C-1.13841762 20.06104757 -1.13528883 16.79615407 -1.1328125 13.53125 C-1.13483673 12.29274292 -1.13686096 11.05423584 -1.13894653 9.77819824 C-1.13579437 8.6403186 -1.13264221 7.50243896 -1.12939453 6.33007812 C-1.12859894 5.32271606 -1.12780334 4.315354 -1.12698364 3.27746582 C-1 1 -1 1 0 0 Z " fill="#FDFEFE" transform="translate(315,49)"/>
<path d="M0 0 C7.44636728 6.12256865 7.44636728 6.12256865 8.8125 10.5625 C8.8125 16.87793734 7.37043509 21.44297789 3.3125 26.3125 C-0.87842315 29.3480308 -6.15702376 29.59807289 -11.1875 29.3125 C-14.8776673 28.2152757 -16.95330299 26.91105826 -19.375 23.9375 C-19.86355469 23.35226563 -20.35210937 22.76703125 -20.85546875 22.1640625 C-22.1875 20.3125 -22.1875 20.3125 -24.1875 16.3125 C-54.5475 16.3125 -84.9075 16.3125 -116.1875 16.3125 C-116.5175 14.9925 -116.8475 13.6725 -117.1875 12.3125 C-115.32062423 10.44562423 -112.64468552 11.19243502 -110.16117859 11.18807983 C-109.29515518 11.19167511 -108.42913177 11.19527039 -107.53686523 11.19897461 C-106.1760231 11.19875557 -106.1760231 11.19875557 -104.78768921 11.1985321 C-101.77380015 11.19923159 -98.75997207 11.20702566 -95.74609375 11.21484375 C-93.66244033 11.2167078 -91.57878646 11.21813176 -89.49513245 11.21913147 C-83.99926554 11.22295766 -78.50342487 11.2327888 -73.00756836 11.24383545 C-67.40413773 11.2540474 -61.80070287 11.25862863 -56.19726562 11.26367188 C-45.19399886 11.27441098 -34.19075161 11.29148861 -23.1875 11.3125 C-22.76404297 10.17361328 -22.76404297 10.17361328 -22.33203125 9.01171875 C-20.50422094 4.70108078 -17.92465187 1.34540111 -13.875 -1.0625 C-8.54686236 -2.30160178 -4.80892339 -2.54590062 0 0 Z M-17.1875 8.3125 C-18.78836627 11.51423254 -18.68667089 14.83827059 -18.1875 18.3125 C-16.39386089 21.1225346 -15.16869065 22.82190468 -12.1875 24.3125 C-8.77935338 24.78903732 -5.58981616 24.85729788 -2.1875 24.3125 C1.21682151 21.65712922 2.43400515 20.25612218 3.24609375 16.0859375 C3.47176465 11.99650732 3.14086086 9.83787737 0.9375 6.3125 C-2.29178072 3.27317697 -4.63230358 2.9207044 -9.08203125 2.953125 C-12.80343453 3.58831814 -14.59062849 5.65229016 -17.1875 8.3125 Z " fill="#2997DF" transform="translate(124.1875,13.6875)"/>
<path d="M0 0 C4.87325464 2.53115166 7.95572861 5.85235552 9.6640625 11.19921875 C10.62841729 16.02099272 9.726318 19.33070156 7.2890625 23.55859375 C4.22325276 27.95227014 0.40646039 30.16135225 -4.75390625 31.25390625 C-9.67314456 31.39470735 -14.01086383 29.07829443 -17.58203125 25.8125 C-19.666967 23.41512431 -20.93085886 21.33632967 -21.9375 18.31640625 C-45.0375 17.98640625 -68.1375 17.65640625 -91.9375 17.31640625 C-92.2675 15.99640625 -92.5975 14.67640625 -92.9375 13.31640625 C-91.9375 12.31640625 -91.9375 12.31640625 -89.15977478 12.19615173 C-87.91845291 12.19837234 -86.67713104 12.20059296 -85.39819336 12.20288086 C-84.71529739 12.20273483 -84.03240143 12.20258881 -83.32881165 12.20243835 C-81.06162386 12.20313749 -78.79451726 12.21092985 -76.52734375 12.21875 C-74.95935613 12.22061418 -73.39136793 12.22203808 -71.82337952 12.22303772 C-67.68873497 12.22686291 -63.55412534 12.23669319 -59.41949463 12.2477417 C-55.20349602 12.25795581 -50.98749178 12.26253534 -46.77148438 12.26757812 C-38.49347353 12.27831546 -30.2154911 12.29539189 -21.9375 12.31640625 C-21.64093506 11.36483643 -21.34437012 10.4132666 -21.03881836 9.43286133 C-19.90610913 6.22757796 -19.10021154 5.07848363 -16.5 3.00390625 C-15.60474609 2.26720703 -15.60474609 2.26720703 -14.69140625 1.515625 C-10.37617779 -1.43487642 -4.85835143 -1.71413609 0 0 Z M-14.8125 7.50390625 C-16.70902078 10.55941195 -17.0572915 13.79586715 -16.9375 17.31640625 C-15.43467203 21.37404178 -14.55591259 22.90413119 -10.9375 25.31640625 C-5.94129187 26.12088044 -2.12117333 26.113574 2.125 23.25390625 C4.43363313 19.75372054 4.98783746 17.49750863 5.0625 13.31640625 C4.01777751 8.82409955 1.85167815 6.84252501 -1.9375 4.31640625 C-6.52404018 2.02313616 -10.83811428 4.98679529 -14.8125 7.50390625 Z " fill="#28A0E9" transform="translate(99.9375,80.68359375)"/>
<path d="M0 0 C5.3035228 2.70179463 9.09832298 6.29496895 11 12 C25.19 12.33 39.38 12.66 54 13 C54 14.32 54 15.64 54 17 C50.56395235 18.71802382 46.61561104 18.1196618 42.8359375 18.09765625 C41.92872955 18.0962413 41.02152161 18.09482635 40.08682251 18.09336853 C37.18284845 18.08776096 34.27895085 18.07520718 31.375 18.0625 C29.40885528 18.05748598 27.44270935 18.0529229 25.4765625 18.04882812 C20.6510121 18.03778906 15.82551903 18.02051935 11 18 C10.71511719 18.75925781 10.43023437 19.51851562 10.13671875 20.30078125 C8.61853397 23.90581797 6.76631136 26.23368864 4 29 C-0.34649507 30.73859803 -4.34954681 31.66435046 -9 31 C-13.91334317 28.7308606 -17.91226793 26.1579263 -20 21 C-21.46757639 15.33934821 -20.83103607 12.09586493 -18 7 C-12.67912651 0.86053059 -8.02191521 -1.13004371 0 0 Z M-14 9 C-15.72869779 12.45739557 -15.48966895 16.21975568 -15 20 C-13.20606332 22.87029869 -12.01736724 24.49131638 -9 26 C-5.94079426 26.42071592 -3.0532254 26.48514117 0 26 C2.75569447 23.81840855 4.43588747 22.12822506 6 19 C6.3751455 14.02932218 6.15878799 10.94848498 3 7 C-0.01002441 4.65886991 -3.27741542 4.58783393 -7.03125 4.671875 C-10.14316604 5.19052767 -11.85067869 6.78554774 -14 9 Z " fill="#379ADB" transform="translate(163,35)"/>
<path d="M0 0 C3.76281219 2.45020328 5.34836504 5.39140309 7.1875 9.4375 C7.1875 10.4275 7.1875 11.4175 7.1875 12.4375 C26.3275 12.4375 45.4675 12.4375 65.1875 12.4375 C65.1875 13.0975 65.1875 13.7575 65.1875 14.4375 C45.0575 14.7675 24.9275 15.0975 4.1875 15.4375 C3.5275 13.1275 2.8675 10.8175 2.1875 8.4375 C0.27412361 6.57012726 0.27412361 6.57012726 -2.125 5.5 C-3.26388672 4.89865234 -3.26388672 4.89865234 -4.42578125 4.28515625 C-7.09644773 3.33665441 -8.99868286 3.14641547 -11.8125 3.4375 C-14.46221542 5.24412415 -16.36870529 6.54991058 -17.8125 9.4375 C-18.22659424 13.56251571 -18.45171241 17.21995255 -16.5 20.9375 C-14.77557007 22.66865403 -14.77557007 22.66865403 -11.8125 23.4375 C-11.4825 24.4275 -11.1525 25.4175 -10.8125 26.4375 C-13.91273244 26.42425114 -16.80748199 26.23020303 -19.8125 25.4375 C-23.19387614 21.80252065 -24.71325684 18.399658 -24.8125 13.4375 C-23.59597346 8.38193481 -21.51712888 4.14212888 -17.8125 0.4375 C-12.50757071 -2.74545757 -5.4950078 -2.75341251 0 0 Z " fill="#269BE5" transform="translate(66.8125,116.5625)"/>
<path d="M0 0 C0 1.32 0 2.64 0 4 C-3.43604765 5.71802382 -7.38438896 5.1196618 -11.1640625 5.09765625 C-12.07127045 5.0962413 -12.97847839 5.09482635 -13.91317749 5.09336853 C-16.81715155 5.08776096 -19.72104915 5.07520718 -22.625 5.0625 C-24.59114472 5.05748598 -26.55729065 5.0529229 -28.5234375 5.04882812 C-33.3489879 5.03778906 -38.17448097 5.02051935 -43 5 C-43.28488281 5.75925781 -43.56976563 6.51851562 -43.86328125 7.30078125 C-45.38146603 10.90581797 -47.23368864 13.23368864 -50 16 C-54.40121135 17.76048454 -58.27782626 18.32945398 -63 18 C-63.66 17.67 -64.32 17.34 -65 17 C-65 16.01 -65 15.02 -65 14 C-64.16855469 13.95101562 -63.33710938 13.90203125 -62.48046875 13.8515625 C-61.39378906 13.77679688 -60.30710938 13.70203125 -59.1875 13.625 C-58.10855469 13.55539063 -57.02960938 13.48578125 -55.91796875 13.4140625 C-52.81373814 13.18804267 -52.81373814 13.18804267 -50 11 C-49.29508733 8.67793475 -48.62787571 6.34406932 -48 4 C-44.12351028 0.12351028 -38.53487034 0.80881709 -33.3203125 0.68359375 C-32.58932343 0.66281265 -31.85833435 0.64203156 -31.10519409 0.62062073 C-28.7785524 0.55558247 -26.45179991 0.49657419 -24.125 0.4375 C-22.56900007 0.39425078 -21.0130103 0.35063457 -19.45703125 0.30664062 C-17.95313392 0.26529923 -16.44922788 0.22427334 -14.9453125 0.18359375 C-14.25341827 0.16485703 -13.56152405 0.1461203 -12.84866333 0.1268158 C-8.56469682 0.01847732 -4.28523591 -0.01637182 0 0 Z " fill="#27A0E5" transform="translate(217,48)"/>
<path d="M0 0 C0.99 0.66 1.98 1.32 3 2 C0.69 2 -1.62 2 -4 2 C-4.33 2.99 -4.66 3.98 -5 5 C-6.99145391 6.01691264 -8.99187074 7.01642648 -11 8 C-13.68990329 12.03485494 -13.77993882 15.26228652 -13 20 C-11.25 23.25 -11.25 23.25 -8 25 C-3.74070519 25.63404564 -0.07781997 25.35927332 4 24 C4 24.66 4 25.32 4 26 C4.66 26.66 5.32 27.32 6 28 C2.18579093 30.95293606 -0.95858313 31.58252463 -5.65234375 31.41796875 C-10.82718883 30.4966569 -14.66642174 27.63470883 -17.9375 23.625 C-19.88976252 18.80176318 -20.43429291 15.39938828 -18.875 10.375 C-14.17084003 1.90751206 -9.26822066 -0.58845845 0 0 Z " fill="#2F96DA" transform="translate(62,46)"/>
<path d="M0 0 C0.99 0.33 1.98 0.66 3 1 C5.22277582 1.11800406 7.44883551 1.17694326 9.67456055 1.20532227 C10.347995 1.21522186 11.02142944 1.22512146 11.715271 1.23532104 C13.93905127 1.26688389 16.1628529 1.29167275 18.38671875 1.31640625 C19.92943372 1.33698029 21.4721431 1.35797688 23.0148468 1.37937927 C27.07377602 1.4345535 31.13275573 1.48398325 35.19177246 1.53222656 C39.33427418 1.58247554 43.47670266 1.63814387 47.61914062 1.69335938 C55.74603181 1.80088409 63.8729843 1.90234166 72 2 C72 2.99 72 3.98 72 5 C62.90769199 5.04628063 53.81542434 5.08184737 44.72302437 5.10362434 C40.5013425 5.11407464 36.27974105 5.12825645 32.05810547 5.15087891 C27.98622723 5.17256303 23.91442647 5.18455923 19.84249496 5.18975449 C18.28670913 5.19345824 16.73092768 5.20069046 15.17517471 5.21146011 C13.00096626 5.22591638 10.82708058 5.22798044 8.65283203 5.22705078 C7.41373077 5.231492 6.17462952 5.23593323 4.89797974 5.24050903 C2 5 2 5 0 3 C0 2.01 0 1.02 0 0 Z " fill="#209FEE" transform="translate(144,87)"/>
<path d="M0 0 C0.66 0.33 1.32 0.66 2 1 C2.40729228 3.32156597 2.74438677 5.6568787 3 8 C3.66 7.67 4.32 7.34 5 7 C6.90981946 6.90880329 8.82287186 6.88247463 10.73486328 6.88647461 C12.53650436 6.88658791 12.53650436 6.88658791 14.37454224 6.88670349 C15.67664642 6.89186478 16.97875061 6.89702606 18.3203125 6.90234375 C19.66266833 6.90420862 21.00502484 6.9056322 22.34738159 6.90663147 C25.88195675 6.91045122 29.41649087 6.92027688 32.9510498 6.93133545 C36.55720464 6.94156122 40.1633661 6.94613159 43.76953125 6.95117188 C50.84637096 6.96189962 57.9231828 6.97896955 65 7 C65 7.33 65 7.66 65 8 C63.93551132 8.0154612 63.93551132 8.0154612 62.84951782 8.03123474 C56.16892967 8.12912188 49.48843025 8.23162371 42.80799294 8.33933926 C39.37333017 8.39455623 35.93865887 8.44797423 32.50390625 8.49731445 C28.55720111 8.55408707 24.61064158 8.61862398 20.6640625 8.68359375 C19.42757965 8.70030624 18.1910968 8.71701874 16.91714478 8.73423767 C15.77611298 8.75418289 14.63508118 8.77412811 13.45947266 8.79467773 C12.451315 8.81022202 11.44315735 8.8257663 10.40444946 8.84178162 C7.98733556 8.8448655 7.98733556 8.8448655 6 10 C5.07427513 11.69184201 4.1509426 13.38609371 3.29296875 15.11328125 C1.49235342 17.74076525 -0.32194404 19.26736182 -3 21 C-6.2265625 21.49609375 -6.2265625 21.49609375 -9.625 21.4375 C-10.75164063 21.43621094 -11.87828125 21.43492187 -13.0390625 21.43359375 C-16.19314042 20.9717169 -17.12694353 20.50405067 -19 18 C-17.02 18 -15.04 18 -13 18 C-13 17.67 -13 17.34 -13 17 C-12.32453125 16.92523438 -11.6490625 16.85046875 -10.953125 16.7734375 C-6.39681834 16.10184317 -3.71330826 15.68013113 -0.3125 12.4375 C1.39665843 7.96113267 0.9440855 4.61780951 0 0 Z " fill="#2B96DB" transform="translate(68,124)"/>
<path d="M0 0 C1.75539345 0.00333092 1.75539345 0.00333092 3.54624939 0.00672913 C4.51207191 0.00651009 4.51207191 0.00651009 5.49740601 0.00628662 C7.63473327 0.00698567 9.77197438 0.01477761 11.9092865 0.02259827 C13.3875931 0.02446248 14.86590032 0.02588637 16.34420776 0.02688599 C20.24211827 0.03071093 24.13999174 0.040541 28.03788757 0.05158997 C32.01259358 0.0618046 35.98730554 0.06638372 39.96202087 0.07142639 C47.76607425 0.0821633 55.57009707 0.09923942 63.37413025 0.12025452 C63.37413025 0.45025452 63.37413025 0.78025452 63.37413025 1.12025452 C42.58413025 1.12025452 21.79413025 1.12025452 0.37413025 1.12025452 C0.37413025 1.78025452 0.37413025 2.44025452 0.37413025 3.12025452 C29.41413025 3.12025452 58.45413025 3.12025452 88.37413025 3.12025452 C88.37413025 3.45025452 88.37413025 3.78025452 88.37413025 4.12025452 C58.34413025 4.45025452 28.31413025 4.78025452 -2.62586975 5.12025452 C-2.95586975 3.80025452 -3.28586975 2.48025452 -3.62586975 1.12025452 C-2.62586975 0.12025452 -2.62586975 0.12025452 0 0 Z " fill="#3C98D4" transform="translate(10.625869750976563,24.879745483398438)"/>
<path d="M0 0 C1.82867363 0.00999275 1.82867363 0.00999275 3.69429016 0.02018738 C4.70444183 0.01953026 4.70444183 0.01953026 5.73500061 0.01885986 C7.95911231 0.02094854 10.1824685 0.04428205 12.40644836 0.0677948 C13.94915353 0.0733905 15.49186402 0.07766072 17.03457642 0.08065796 C21.09370153 0.09210884 25.15250427 0.12157786 29.21150208 0.1547699 C33.35391377 0.18546568 37.49637758 0.19916223 41.63887024 0.21427917 C49.76597125 0.24644755 57.89281032 0.29764657 66.01972961 0.36076355 C67.00972961 2.34076355 67.00972961 2.34076355 68.01972961 4.36076355 C67.02972961 4.36076355 66.03972961 4.36076355 65.01972961 4.36076355 C65.01972961 3.70076355 65.01972961 3.04076355 65.01972961 2.36076355 C29.87472961 2.85576355 29.87472961 2.85576355 -5.98027039 3.36076355 C-2.98027039 0.36076355 -2.98027039 0.36076355 0 0 Z " fill="#3AA0D7" transform="translate(149.9802703857422,110.63923645019531)"/>
<path d="M0 0 C24.255 0.495 24.255 0.495 49 1 C49 1.66 49 2.32 49 3 C33.49 3 17.98 3 2 3 C2 3.66 2 4.32 2 5 C1.34 5 0.68 5 0 5 C0 3.35 0 1.7 0 0 Z M-1 5 C0 9 0 9 0 9 Z " fill="#1BA1F4" transform="translate(71,60)"/>
<path d="M0 0 C1.17781058 3.68065805 1 7.1644081 1 11 C1.33 11.99 1.66 12.98 2 14 C2.33 9.71 2.66 5.42 3 1 C3.66 1 4.32 1 5 1 C4.94199219 1.73605469 4.88398438 2.47210938 4.82421875 3.23046875 C4.51185309 9.51585287 4.51185309 9.51585287 6.9375 15.1875 C11.04758625 17.62000002 14.33213718 17.95383092 19 17 C22.02690443 15.18409021 22.02690443 15.18409021 24 13 C23.6875 14.875 23.6875 14.875 23 17 C19.47320901 19.35119399 17.97120515 19.21443452 13.8125 19.125 C12.72582031 19.10695313 11.63914063 19.08890625 10.51953125 19.0703125 C9.27236328 19.03550781 9.27236328 19.03550781 8 19 C8 19.66 8 20.32 8 21 C4.53570262 20.03769517 3.08975951 19.10721275 0.75 16.3125 C-1.815701 11.45599454 -2.51643807 7.89360624 -1.0625 2.5625 C-0.711875 1.716875 -0.36125 0.87125 0 0 Z " fill="#369ADB" transform="translate(144,43)"/>
<path d="M0 0 C0.66 0 1.32 0 2 0 C2.33 0.99 2.66 1.98 3 3 C3.66 3.33 4.32 3.66 5 4 C5.33 3.34 5.66 2.68 6 2 C6.61875 2.804375 7.2375 3.60875 7.875 4.4375 C11.49443249 8.15135247 16.07531881 7.89481263 21 8 C20.34 8.66 19.68 9.32 19 10 C19.66 10.66 20.32 11.32 21 12 C11.02173913 13.60869565 11.02173913 13.60869565 7 11 C3.56968635 7.66194418 0.88894346 4.80452775 0 0 Z " fill="#2F9ADE" transform="translate(101,30)"/>
<path d="M0 0 C1.75539345 0.00333092 1.75539345 0.00333092 3.54624939 0.00672913 C4.51207191 0.00651009 4.51207191 0.00651009 5.49740601 0.00628662 C7.63473327 0.00698567 9.77197438 0.01477761 11.9092865 0.02259827 C13.3875931 0.02446248 14.86590032 0.02588637 16.34420776 0.02688599 C20.24211827 0.03071093 24.13999174 0.040541 28.03788757 0.05158997 C32.01259358 0.0618046 35.98730554 0.06638372 39.96202087 0.07142639 C47.76607425 0.0821633 55.57009707 0.09923942 63.37413025 0.12025452 C63.37413025 0.45025452 63.37413025 0.78025452 63.37413025 1.12025452 C42.58413025 1.12025452 21.79413025 1.12025452 0.37413025 1.12025452 C0.37413025 1.78025452 0.37413025 2.44025452 0.37413025 3.12025452 C1.69413025 3.45025452 3.01413025 3.78025452 4.37413025 4.12025452 C2.06413025 4.45025452 -0.24586975 4.78025452 -2.62586975 5.12025452 C-3.18836975 3.18275452 -3.18836975 3.18275452 -3.62586975 1.12025452 C-2.62586975 0.12025452 -2.62586975 0.12025452 0 0 Z " fill="#449AC8" transform="translate(10.625869750976563,24.879745483398438)"/>
<path d="M0 0 C22.77 0 45.54 0 69 0 C69 0.33 69 0.66 69 1 C68.16728073 1.01030746 67.33456146 1.02061493 66.47660828 1.03123474 C58.63376791 1.129162 50.79100373 1.2316697 42.94829082 1.33933926 C38.91615716 1.39453281 34.88401619 1.44794712 30.85180664 1.49731445 C26.96141552 1.54501062 23.07111231 1.59735535 19.18082619 1.65294075 C17.69567869 1.6733405 16.21050711 1.69205751 14.725317 1.70907402 C12.64711162 1.73317079 10.56907192 1.76321796 8.4909668 1.79467773 C7.30738083 1.81022202 6.12379486 1.8257663 4.90434265 1.84178162 C1.93363184 1.87536986 1.93363184 1.87536986 -1 3 C-0.67 2.01 -0.34 1.02 0 0 Z " fill="#4C97C6" transform="translate(8,93)"/>
<path d="M0 0 C0.33 0.66 0.66 1.32 1 2 C0.67 2.66 0.34 3.32 0 4 C0.99 4.33 1.98 4.66 3 5 C-0.55799221 9.95962551 -2.75545346 11.90446552 -9 13 C-14.38983051 13.30508475 -14.38983051 13.30508475 -17 12 C-17 11.01 -17 10.02 -17 9 C-16.16855469 8.95101562 -15.33710938 8.90203125 -14.48046875 8.8515625 C-13.39378906 8.77679688 -12.30710938 8.70203125 -11.1875 8.625 C-10.10855469 8.55539063 -9.02960938 8.48578125 -7.91796875 8.4140625 C-4.81373814 8.18804267 -4.81373814 8.18804267 -2 6 C-0.78715124 2.94570927 -0.78715124 2.94570927 0 0 Z " fill="#2A9CE5" transform="translate(169,53)"/>
<path d="M0 0 C1.04691403 4.27905337 1.15299939 8.43309489 1.125 12.8125 C1.12306641 13.54718506 1.12113281 14.28187012 1.11914062 15.03881836 C1.06021721 22.71277448 0.57658907 30.34989864 0 38 C-0.33 38 -0.66 38 -1 38 C-1.495 20.675 -1.495 20.675 -2 3 C-4.31 2.67 -6.62 2.34 -9 2 C-9 1.67 -9 1.34 -9 1 C-2.25 0 -2.25 0 0 0 Z " fill="#F5F6F8" transform="translate(523,49)"/>
<path d="M0 0 C1.32 0 2.64 0 4 0 C4.33 0.99 4.66 1.98 5 3 C9.55455339 3.86591983 13.95383455 4.18670737 18.5859375 4.31640625 C19.63861313 4.3475779 19.63861313 4.3475779 20.71255493 4.37937927 C22.93327958 4.44426324 25.15411276 4.5034723 27.375 4.5625 C28.88933371 4.60574354 30.40365683 4.6493596 31.91796875 4.69335938 C35.61186655 4.79988086 39.30588354 4.90131677 43 5 C43 5.33 43 5.66 43 6 C29.8 6 16.6 6 3 6 C2.67 4.68 2.34 3.36 2 2 C1.34 2 0.68 2 0 2 C0 1.34 0 0.68 0 0 Z " fill="#1D96DD" transform="translate(69,55)"/>
<path d="M0 0 C3.80970129 2.78087821 6.55253178 5.03346865 8.5625 9.375 C9.11841773 13.98117544 8.53329889 16.61914603 7 21 C5.375 23 5.375 23 4 24 C4.33 23.21625 4.66 22.4325 5 21.625 C6.23551036 17.14627496 6.93449345 12.60119232 6 8 C4.07469321 6.17722899 4.07469321 6.17722899 2 5 C1.67 5.66 1.34 6.32 1 7 C0.505 6.505 0.01 6.01 -0.5 5.5 C-4.16894414 3.29863351 -6.74317925 3.72972567 -11 4 C-11.99 4.33 -12.98 4.66 -14 5 C-14 4.34 -14 3.68 -14 3 C-11.51245214 1.75622607 -9.77344699 1.86693765 -7 1.875 C-6.113125 1.87242188 -5.22625 1.86984375 -4.3125 1.8671875 C-2 2 -2 2 0 3 C0 2.01 0 1.02 0 0 Z " fill="#3B99D4" transform="translate(124,14)"/>
<path d="M0 0 C0.99 0 1.98 0 3 0 C2.99097656 0.60328125 2.98195312 1.2065625 2.97265625 1.828125 C3.06742799 4.3828416 3.25776853 6.54851549 4 9 C6.18117415 10.89713919 8.339126 11.76459421 11 13 C11.33 13.99 11.66 14.98 12 16 C9.03 15.67 6.06 15.34 3 15 C1.17981627 11.13210957 0.90974401 8.24203146 1 4 C0.56058477 1.73433657 0.56058477 1.73433657 0 0 Z " fill="#1D9DEA" transform="translate(44,127)"/>
<path d="M0 0 C1.8871875 0.0309375 1.8871875 0.0309375 3.8125 0.0625 C3.8125 0.3925 3.8125 0.7225 3.8125 1.0625 C3.20921875 1.17207031 2.6059375 1.28164062 1.984375 1.39453125 C-4.10836866 2.60081885 -4.10836866 2.60081885 -9.1875 6.0625 C-10.1775 6.5575 -10.1775 6.5575 -11.1875 7.0625 C-10.8575 11.3525 -10.5275 15.6425 -10.1875 20.0625 C-10.8475 19.7325 -11.5075 19.4025 -12.1875 19.0625 C-12.59479228 16.74093403 -12.93188677 14.4056213 -13.1875 12.0625 C-14.1775 12.3925 -15.1675 12.7225 -16.1875 13.0625 C-14.93534899 7.21912862 -11.96850896 4.33147494 -7.1875 1.0625 C-4.43671116 0.14557039 -2.82801087 -0.04636083 0 0 Z " fill="#369AD7" transform="translate(94.1875,79.9375)"/>
<path d="M0 0 C2 2 2 2 2 5 C1.34 5 0.68 5 0 5 C0 9.62 0 14.24 0 19 C-2 18 -2 18 -3 15 C-3.29323263 9.91730104 -2.63800587 5.81766432 -1 1 C-0.67 0.67 -0.34 0.34 0 0 Z " fill="#1AA3F1" transform="translate(147,39)"/>
<path d="M0 0 C0 0.99 0 1.98 0 3 C-4.62 3 -9.24 3 -14 3 C-14 3.66 -14 4.32 -14 5 C-14.99 5 -15.98 5 -17 5 C-16.0576731 2.43001753 -15.31047705 1.20375056 -13 -0.3125 C-8.57394387 -1.32680453 -4.45770165 -0.64052412 0 0 Z " fill="#1D9DED" transform="translate(124,14)"/>
<path d="M0 0 C3.88999932 0.5762962 6.14170537 2.36736021 9 5 C10.375 7.0625 10.375 7.0625 11 9 C10.67 9.99 10.34 10.98 10 12 C9.34 11.67 8.68 11.34 8 11 C8 9.35 8 7.7 8 6 C5.83333333 6.83333333 5.83333333 6.83333333 5 9 C3.68 7.35 2.36 5.7 1 4 C1.66 3.67 2.32 3.34 3 3 C2.01 2.01 1.02 1.02 0 0 Z " fill="#3598D9" transform="translate(98,81)"/>
<path d="M0 0 C0 0.66 0 1.32 0 2 C-5.94 2 -11.88 2 -18 2 C-17.67 1.34 -17.34 0.68 -17 0 C-11.34761442 -1.10736685 -5.61840611 -1.36663932 0 0 Z " fill="#19A2F0" transform="translate(216,49)"/>
<path d="M0 0 C0.99 0.66 1.98 1.32 3 2 C0.69 2 -1.62 2 -4 2 C-4.33 2.99 -4.66 3.98 -5 5 C-5.99 5 -6.98 5 -8 5 C-8 4.34 -8 3.68 -8 3 C-8.78375 3.515625 -9.5675 4.03125 -10.375 4.5625 C-11.24125 5.036875 -12.1075 5.51125 -13 6 C-13.66 5.67 -14.32 5.34 -15 5 C-10.41458299 -0.04395871 -6.60043211 -0.41907505 0 0 Z " fill="#3791D4" transform="translate(62,46)"/>
<path d="M0 0 C1.98 0 3.96 0 6 0 C6 0.99 6 1.98 6 3 C7.32 3.33 8.64 3.66 10 4 C7.89646505 4.0810206 5.79204048 4.13919907 3.6875 4.1875 C2.51574219 4.22230469 1.34398437 4.25710937 0.13671875 4.29296875 C-3 4 -3 4 -4.91796875 2.48828125 C-5.27503906 1.99714844 -5.63210937 1.50601563 -6 1 C-4.02 1 -2.04 1 0 1 C0 0.67 0 0.34 0 0 Z " fill="#3596D6" transform="translate(55,141)"/>
<path d="M0 0 C7.425 0.99 7.425 0.99 15 2 C15 2.66 15 3.32 15 4 C12.4542797 5.27286015 10.88865503 5.03245039 8.0625 4.8125 C7.18722656 4.75707031 6.31195313 4.70164062 5.41015625 4.64453125 C3 4 3 4 0 0 Z " fill="#1C9DF0" transform="translate(84,105)"/>
<path d="M0 0 C0.99 0 1.98 0 3 0 C3 0.99 3 1.98 3 3 C2.175 3.66 1.35 4.32 0.5 5 C-3.17395155 9.40874186 -2.43533828 13.47604096 -2 19 C-2.66 18.67 -3.32 18.34 -4 18 C-4.05449838 16.27119018 -4.09301688 14.54187288 -4.125 12.8125 C-4.14820313 11.84957031 -4.17140625 10.88664062 -4.1953125 9.89453125 C-3.91404329 5.72612156 -2.96311369 2.96311369 0 0 Z " fill="#319BDF" transform="translate(51,49)"/>
<path d="M0 0 C0.33 0 0.66 0 1 0 C1.33 4.62 1.66 9.24 2 14 C1.34 14 0.68 14 0 14 C-0.33 12.35 -0.66 10.7 -1 9 C-2.32 8.67 -3.64 8.34 -5 8 C-5 7.34 -5 6.68 -5 6 C-3.68 6 -2.36 6 -1 6 C-0.67 4.02 -0.34 2.04 0 0 Z " fill="#1BA0F7" transform="translate(81,89)"/>
<path d="M0 0 C-0.33 0.99 -0.66 1.98 -1 3 C-4.63 3 -8.26 3 -12 3 C-12 2.34 -12 1.68 -12 1 C-7.53763531 -0.80619523 -4.68965706 -1.11658501 0 0 Z " fill="#209EEA" transform="translate(165,36)"/>
<path d="M0 0 C0.99 0.33 1.98 0.66 3 1 C3 1.99 3 2.98 3 4 C3.66 4 4.32 4 5 4 C5 4.99 5 5.98 5 7 C6.32 7.66 7.64 8.32 9 9 C6.69 9.66 4.38 10.32 2 11 C1.34 7.37 0.68 3.74 0 0 Z " fill="#279BE5" transform="translate(167,41)"/>
<path d="M0 0 C0.66 0 1.32 0 2 0 C2.33 3.63 2.66 7.26 3 11 C2.01 10.67 1.02 10.34 0 10 C0 9.01 0 8.02 0 7 C-0.99 6.67 -1.98 6.34 -3 6 C-3 5.34 -3 4.68 -3 4 C-2.34 3.67 -1.68 3.34 -1 3 C-0.67 2.01 -0.34 1.02 0 0 Z " fill="#1AA3F4" transform="translate(103,23)"/>
<path d="M0 0 C2.46800047 1.15173355 4.04783565 2.04783565 6 4 C6.1953125 6.3828125 6.1953125 6.3828125 6.125 9.125 C6.10695312 10.03507812 6.08890625 10.94515625 6.0703125 11.8828125 C6.04710937 12.58148438 6.02390625 13.28015625 6 14 C5.34 14 4.68 14 4 14 C3.67 10.7 3.34 7.4 3 4 C2.34 4 1.68 4 1 4 C0.67 2.68 0.34 1.36 0 0 Z " fill="#1D9FF3" transform="translate(125,18)"/>
<path d="M0 0 C1.32 0 2.64 0 4 0 C4.33 0.99 4.66 1.98 5 3 C7.97 3.495 7.97 3.495 11 4 C11 4.66 11 5.32 11 6 C8.36 6 5.72 6 3 6 C2.67 4.68 2.34 3.36 2 2 C1.34 2 0.68 2 0 2 C0 1.34 0 0.68 0 0 Z " fill="#2995D9" transform="translate(69,55)"/>
<path d="M0 0 C-0.53895377 3.7726764 -1.99535358 5.68212991 -5 8 C-7.13671875 7.60546875 -7.13671875 7.60546875 -9 7 C-7.88121617 5.82737096 -6.75476949 4.66204862 -5.625 3.5 C-4.68527344 2.52546875 -4.68527344 2.52546875 -3.7265625 1.53125 C-2 0 -2 0 0 0 Z " fill="#27A1EA" transform="translate(146,116)"/>
<path d="M0 0 C3.63 0 7.26 0 11 0 C10.01 1.485 10.01 1.485 9 3 C5.7 2.67 2.4 2.34 -1 2 C-0.67 1.34 -0.34 0.68 0 0 Z " fill="#1B9FF3" transform="translate(53,73)"/>
<path d="M0 0 C1.13732426 3.40401948 0.83989957 5.77456664 0.0625 9.25 C-0.13214844 10.14203125 -0.32679687 11.0340625 -0.52734375 11.953125 C-0.68332031 12.62859375 -0.83929688 13.3040625 -1 14 C-1.66 13.67 -2.32 13.34 -3 13 C-3.31563182 7.73946963 -2.66590937 4.55426184 0 0 Z " fill="#1EA0F7" transform="translate(47,52)"/>
<path d="M0 0 C0.99 0 1.98 0 3 0 C2.25 7.75 2.25 7.75 0 10 C-0.19412181 8.52168779 -0.38012131 7.04230684 -0.5625 5.5625 C-0.66691406 4.73878906 -0.77132812 3.91507812 -0.87890625 3.06640625 C-0.91886719 2.38449219 -0.95882812 1.70257813 -1 1 C-0.67 0.67 -0.34 0.34 0 0 Z " fill="#2CA0E4" transform="translate(107,93)"/>
<path d="M0 0 C-1.08203125 1.51953125 -1.08203125 1.51953125 -3 3 C-6.13671875 3.07421875 -6.13671875 3.07421875 -9.6875 2.6875 C-10.86699219 2.56761719 -12.04648438 2.44773438 -13.26171875 2.32421875 C-14.16535156 2.21722656 -15.06898437 2.11023437 -16 2 C-16 1.67 -16 1.34 -16 1 C-15.06027344 0.90912109 -15.06027344 0.90912109 -14.1015625 0.81640625 C-12.87566406 0.69072266 -12.87566406 0.69072266 -11.625 0.5625 C-10.81289062 0.48128906 -10.00078125 0.40007813 -9.1640625 0.31640625 C-2.671875 -0.6328125 -2.671875 -0.6328125 0 0 Z " fill="#1CAAF0" transform="translate(127,39)"/>
<path d="M0 0 C0.89203125 0.11085937 1.7840625 0.22171875 2.703125 0.3359375 C3.37859375 0.43132813 4.0540625 0.52671875 4.75 0.625 C4.75 0.955 4.75 1.285 4.75 1.625 C3.82767578 1.71587891 3.82767578 1.71587891 2.88671875 1.80859375 C2.07847656 1.89238281 1.27023438 1.97617187 0.4375 2.0625 C-0.36300781 2.14371094 -1.16351563 2.22492187 -1.98828125 2.30859375 C-4.41087179 2.57765693 -4.41087179 2.57765693 -7.25 3.625 C-7.91 2.965 -8.57 2.305 -9.25 1.625 C-5.9353333 -0.40407167 -3.8184021 -0.50242133 0 0 Z " fill="#19AAF1" transform="translate(188.25,49.375)"/>
<path d="M0 0 C0.99 0.33 1.98 0.66 3 1 C2.67 2.65 2.34 4.3 2 6 C0.68 6.33 -0.64 6.66 -2 7 C-1.42415568 4.61435923 -0.77772405 2.33317216 0 0 Z " fill="#20A1F1" transform="translate(49,117)"/>
<path d="M0 0 C4.95 0 9.9 0 15 0 C15.66 1.32 16.32 2.64 17 4 C16.01 4 15.02 4 14 4 C14 3.01 14 2.02 14 1 C9.38 1 4.76 1 0 1 C0 0.67 0 0.34 0 0 Z " fill="#4BA1D1" transform="translate(201,111)"/>
<path d="M0 0 C3.375 -0.125 3.375 -0.125 7 0 C7.66 0.66 8.32 1.32 9 2 C8.01 2.99 7.02 3.98 6 5 C3.98079663 3.69593116 1.98075027 2.36176581 0 1 C0 0.67 0 0.34 0 0 Z " fill="#1EA5F4" transform="translate(58,117)"/>
<path d="M0 0 C2.72869407 0.03287583 5.2966618 0.56397771 8 1 C7.67 1.99 7.34 2.98 7 4 C2.545 3.01 2.545 3.01 -2 2 C-1.34 1.34 -0.68 0.68 0 0 Z " fill="#1F9CED" transform="translate(58,47)"/>
<path d="M0 0 C1.32 0.66 2.64 1.32 4 2 C4 2.66 4 3.32 4 4 C3.01 4 2.02 4 1 4 C0.67 4.66 0.34 5.32 0 6 C-0.66 4.68 -1.32 3.36 -2 2 C-1.34 1.34 -0.68 0.68 0 0 Z " fill="#2A9EDD" transform="translate(67,118)"/>
<path d="M0 0 C1.32 1.32 2.64 2.64 4 4 C3.01 4.495 3.01 4.495 2 5 C1.67 5.66 1.34 6.32 1 7 C-0.32 5.35 -1.64 3.7 -3 2 C-2.34 2 -1.68 2 -1 2 C-0.67 1.34 -0.34 0.68 0 0 Z " fill="#3698D9" transform="translate(130,70)"/>
<path d="M0 0 C0.33 0.66 0.66 1.32 1 2 C0.67 2.66 0.34 3.32 0 4 C0.99 4.33 1.98 4.66 3 5 C1.68 6.32 0.36 7.64 -1 9 C-1.09765625 2.84765625 -1.09765625 2.84765625 -1 1 C-0.67 0.67 -0.34 0.34 0 0 Z " fill="#2F9BDC" transform="translate(169,53)"/>
</svg>
