<?xml version="1.0" encoding="UTF-8"?>
<svg version="1.1" xmlns="http://www.w3.org/2000/svg" width="580" height="156">
<path d="M0 0 C1.08152344 -0.01417969 2.16304688 -0.02835938 3.27734375 -0.04296875 C6.0625 0.1875 6.0625 0.1875 8.0625 2.1875 C8.28955078 4.34228516 8.28955078 4.34228516 8.2578125 6.9765625 C8.24814453 8.38808594 8.24814453 8.38808594 8.23828125 9.828125 C8.22152344 10.81296875 8.20476562 11.7978125 8.1875 12.8125 C8.17847656 13.80507813 8.16945313 14.79765625 8.16015625 15.8203125 C8.13654249 18.27614388 8.1006707 20.73185174 8.0625 23.1875 C17.9625 22.6925 17.9625 22.6925 28.0625 22.1875 C28.05089844 20.68316406 28.03929687 19.17882812 28.02734375 17.62890625 C28.01796751 15.66927207 28.00886713 13.70963655 28 11.75 C27.99162109 10.75677734 27.98324219 9.76355469 27.97460938 8.74023438 C27.97138672 7.79599609 27.96816406 6.85175781 27.96484375 5.87890625 C27.95960693 5.00435791 27.95437012 4.12980957 27.94897461 3.22875977 C28.0625 1.1875 28.0625 1.1875 29.0625 0.1875 C31.24889453 0.11491054 33.43750389 0.10376217 35.625 0.125 C37.42130859 0.13853516 37.42130859 0.13853516 39.25390625 0.15234375 C40.18074219 0.16394531 41.10757813 0.17554688 42.0625 0.1875 C43.35585514 2.77421028 43.18956076 4.64296784 43.19189453 7.53930664 C43.19504669 8.65709 43.19819885 9.77487335 43.20144653 10.92652893 C43.1994223 12.13800095 43.19739807 13.34947296 43.1953125 14.59765625 C43.19626923 15.8354332 43.19722595 17.07321014 43.19821167 18.34849548 C43.19906799 21.6410191 43.19503316 24.9334958 43.18945312 28.22601318 C43.18750057 30.24940488 43.18944773 32.27275326 43.19287109 34.29614258 C43.19902249 38.16750119 43.19830714 42.03879503 43.1953125 45.91015625 C43.19733673 47.1236525 43.19936096 48.33714874 43.20144653 49.5874176 C43.19671829 51.2593644 43.19671829 51.2593644 43.19189453 52.96508789 C43.19109894 53.95166885 43.19030334 54.93824982 43.18948364 55.95472717 C43.0625 58.1875 43.0625 58.1875 42.0625 59.1875 C37.39404772 59.33176614 32.73384047 59.22958415 28.0625 59.1875 C27.5675 48.7925 27.5675 48.7925 27.0625 38.1875 C20.7925 37.8575 14.5225 37.5275 8.0625 37.1875 C8.07410156 38.69183594 8.08570313 40.19617188 8.09765625 41.74609375 C8.10703249 43.70572793 8.11613287 45.66536345 8.125 47.625 C8.13337891 48.61822266 8.14175781 49.61144531 8.15039062 50.63476562 C8.15361328 51.57900391 8.15683594 52.52324219 8.16015625 53.49609375 C8.16539307 54.37064209 8.17062988 55.24519043 8.17602539 56.14624023 C8.0625 58.1875 8.0625 58.1875 7.0625 59.1875 C4.89769203 59.2864294 2.72956215 59.317211 0.5625 59.3125 C-0.6234375 59.31507812 -1.809375 59.31765625 -3.03125 59.3203125 C-5.9375 59.1875 -5.9375 59.1875 -6.9375 58.1875 C-7.03643778 56.41303991 -7.06549092 54.63463749 -7.06689453 52.85742188 C-7.07004669 51.71954224 -7.07319885 50.5816626 -7.07644653 49.40930176 C-7.0744223 48.17079468 -7.07239807 46.9322876 -7.0703125 45.65625 C-7.07126923 44.39486206 -7.07222595 43.13347412 -7.07321167 41.8338623 C-7.07389375 39.16052862 -7.07253529 36.48728563 -7.06787109 33.81396484 C-7.06217381 30.38043309 -7.06545301 26.9469795 -7.07144356 23.51345062 C-7.07591762 20.24854757 -7.07278883 16.98365407 -7.0703125 13.71875 C-7.07233673 12.48024292 -7.07436096 11.24173584 -7.07644653 9.96569824 C-7.07329437 8.8278186 -7.07014221 7.68993896 -7.06689453 6.51757812 C-7.06609894 5.51021606 -7.06530334 4.502854 -7.06448364 3.46496582 C-6.81225076 -1.05885906 -3.89008906 0.02312776 0 0 Z " fill="#212731" transform="translate(402.9375,46.8125)"/>
<path d="M0 0 C3.09244792 0.03255208 6.18489583 0.06510417 9.27734375 0.09765625 C13.32456448 8.01040726 17.0694652 16.00068959 20.58984375 24.16015625 C24.4241099 32.9975427 28.38924926 41.74320894 32.72387695 50.34790039 C35.38536509 55.77359223 35.38536509 55.77359223 34.27734375 59.09765625 C32.0075471 59.20559902 29.73629179 59.28321801 27.46484375 59.34765625 C25.56798828 59.41726562 25.56798828 59.41726562 23.6328125 59.48828125 C20.27734375 59.09765625 20.27734375 59.09765625 18.453125 57.33203125 C17.36705315 55.26813392 16.32034176 53.18365227 15.27734375 51.09765625 C7.02734375 51.09765625 -1.22265625 51.09765625 -9.72265625 51.09765625 C-11.04265625 53.73765625 -12.36265625 56.37765625 -13.72265625 59.09765625 C-18.34265625 59.09765625 -22.96265625 59.09765625 -27.72265625 59.09765625 C-28.85589215 55.69794855 -28.67173235 55.32485165 -27.29492188 52.21557617 C-26.95706665 51.44013962 -26.61921143 50.66470306 -26.27111816 49.86576843 C-25.89418823 49.0283461 -25.5172583 48.19092377 -25.12890625 47.328125 C-24.74456421 46.45553543 -24.36022217 45.58294586 -23.9642334 44.68391418 C-23.14475539 42.82836266 -22.32059802 40.97487187 -21.4921875 39.12329102 C-20.24650145 36.33846403 -19.01450947 33.54792873 -17.78515625 30.75585938 C-4.25319164 0.1525535 -4.25319164 0.1525535 0 0 Z M1.27734375 22.09765625 C0.43748291 24.03233567 -0.39433652 25.97050754 -1.22265625 27.91015625 C-1.68671875 28.98910156 -2.15078125 30.06804687 -2.62890625 31.1796875 C-3.89814928 34.04647649 -3.89814928 34.04647649 -3.72265625 37.09765625 C-1.76501242 37.2922233 0.19349696 37.47809872 2.15234375 37.66015625 C3.24289062 37.76457031 4.3334375 37.86898437 5.45703125 37.9765625 C8.22886398 38.32405029 8.22886398 38.32405029 10.27734375 37.09765625 C8.63775617 31.86492992 6.8878234 26.94568989 4.27734375 22.09765625 C3.28734375 22.09765625 2.29734375 22.09765625 1.27734375 22.09765625 Z " fill="#212731" transform="translate(479.72265625,46.90234375)"/>
<path d="M0 0 C0.94875 0.7425 1.8975 1.485 2.875 2.25 C3.926875 3.11625 3.926875 3.11625 5 4 C4.9375 6.25 4.9375 6.25 4 9 C1.04189432 11.56741248 -1.74926238 13.02908692 -5.6875 12.9375 C-8 12 -8 12 -9.875 10.375 C-13.04718442 8.32241008 -15.4335293 9.24555428 -19 10 C-19.33 11.65 -19.66 13.3 -20 15 C-18.7625 15.37125 -17.525 15.7425 -16.25 16.125 C-6.85987486 19.2897099 2.36274933 22.72549866 7 32 C7.59029191 37.67588376 7.31441063 42.18875876 4 47 C-1.41492667 52.57536894 -6.2801205 55.2737662 -14.1875 55.4375 C-21.76616827 55.30032953 -27.29131014 53.27065563 -32.984375 48.25 C-35.98112845 45.06079449 -35.98112845 45.06079449 -37 43 C-36.84765625 40.9296875 -36.84765625 40.9296875 -36 39 C-30.42730375 35.03481229 -30.42730375 35.03481229 -26.4375 34.9375 C-24 36 -24 36 -21.125 38.5625 C-17.41378197 41.45725006 -15.58733893 41.45873389 -11 41 C-10.34 39.35 -9.68 37.7 -9 36 C-11.66660966 32.7247077 -14.87905406 31.6951753 -18.75 30.1875 C-25.26918356 27.52307251 -30.64452267 24.78924614 -34.4375 18.6875 C-35.58490513 13.20545327 -35.89719833 8.76116709 -33.3125 3.6875 C-29.31387153 -0.95955471 -25.26720313 -4.06651339 -19.375 -5.75 C-12.00067637 -6.29624619 -5.82677303 -4.60721588 0 0 Z " fill="#212731" transform="translate(383,52)"/>
<path d="M0 0 C2.27024968 -0.08097324 4.54132075 -0.13917704 6.8125 -0.1875 C8.07707031 -0.22230469 9.34164063 -0.25710937 10.64453125 -0.29296875 C14 0 14 0 15.54760742 1.16430664 C17.41051599 3.51885522 18.43261669 5.89429404 19.59375 8.6640625 C20.06683594 9.78683594 20.53992188 10.90960938 21.02734375 12.06640625 C21.75630859 13.82791016 21.75630859 13.82791016 22.5 15.625 C22.98597656 16.77613281 23.47195313 17.92726563 23.97265625 19.11328125 C26.57930286 25.34224331 28.96790475 31.56045493 31 38 C31.66 38 32.32 38 33 38 C33.27400635 37.15074951 33.5480127 36.30149902 33.83032227 35.42651367 C35.69395901 29.96708104 37.91900275 24.65488029 40.11303711 19.32202148 C40.93832137 17.31049801 41.7533087 15.29498461 42.56835938 13.27929688 C43.09572142 11.99453176 43.62369512 10.71001751 44.15234375 9.42578125 C44.62663818 8.26473877 45.10093262 7.10369629 45.58959961 5.9074707 C46.8535 3.30200252 47.69248841 1.70569768 50 0 C53.06640625 -0.328125 53.06640625 -0.328125 56.5625 -0.25 C57.71878906 -0.23453125 58.87507813 -0.2190625 60.06640625 -0.203125 C63 0 63 0 65 1 C63.28406982 5.4528061 61.30203636 9.76248398 59.296875 14.08984375 C58.55596006 15.69594992 57.81507567 17.30207019 57.07421875 18.90820312 C55.91877355 21.40923315 54.76272974 23.90998409 53.60595703 26.41040039 C52.48045523 28.84446171 51.35681646 31.27936976 50.234375 33.71484375 C49.86985229 34.50506927 49.50532959 35.2952948 49.12976074 36.10946655 C46.35368919 42.15733672 43.73410441 48.25940805 41.20019531 54.41235352 C40 57 40 57 38 59 C35.28515625 59.3359375 35.28515625 59.3359375 32.0625 59.375 C31.00160156 59.40335938 29.94070313 59.43171875 28.84765625 59.4609375 C26 59 26 59 24.30078125 57.37890625 C22.72461429 54.49636668 21.4051118 51.59032921 20.125 48.5625 C19.51987335 47.14773312 18.91293881 45.73373881 18.3046875 44.3203125 C17.95374023 43.5046582 17.60279297 42.68900391 17.24121094 41.84863281 C14.62973757 35.85518842 11.93212305 29.89958441 9.25 23.9375 C8.39815851 22.04390899 7.54648133 20.15024557 6.69552612 18.2562561 C5.93856082 16.57153117 5.18073523 14.88719286 4.42285156 13.20288086 C3.71854004 11.61745483 3.71854004 11.61745483 3 10 C2.72055542 9.38843048 2.44111084 8.77686096 2.15319824 8.14675903 C0.85712263 5.25060588 0 3.21050617 0 0 Z " fill="#212731" transform="translate(256,47)"/>
<path d="M0 0 C2.75 -0.36328125 2.75 -0.36328125 6 -0.3125 C7.60875 -0.30669922 7.60875 -0.30669922 9.25 -0.30078125 C12 0 12 0 14 2 C14.16327437 4.81115043 14.20711651 7.5227255 14.16015625 10.33203125 C14.15495468 11.16079269 14.14975311 11.98955414 14.14439392 12.84342957 C14.12654661 15.49996254 14.09539568 18.15611398 14.0625 20.8125 C14.03483351 23.45813831 14.0100969 26.10371868 13.99131775 28.74943542 C13.97911953 30.39671309 13.9615742 32.04396214 13.93800354 33.69111633 C13.90407841 37.60757242 14.02455284 41.17420159 15 45 C16.27617188 44.98839844 17.55234375 44.97679687 18.8671875 44.96484375 C20.53645687 44.95546583 22.20572783 44.94636563 23.875 44.9375 C24.71675781 44.92912109 25.55851563 44.92074219 26.42578125 44.91210938 C27.23144531 44.90888672 28.03710938 44.90566406 28.8671875 44.90234375 C29.61081543 44.89710693 30.35444336 44.89187012 31.12060547 44.88647461 C33 45 33 45 35 46 C35 50.29 35 54.58 35 59 C30.35544096 59.16771068 25.71071045 59.32825993 21.06567383 59.48217773 C19.48552796 59.53554679 17.90544689 59.59087216 16.32543945 59.64819336 C14.05434137 59.73024686 11.78310314 59.80526189 9.51171875 59.87890625 C8.80536789 59.90594131 8.09901703 59.93297638 7.3712616 59.96083069 C4.26132061 60.05545931 1.98120616 59.99373539 -1 59 C-2.26601979 56.46796041 -2.13384121 54.69775886 -2.14526367 51.86352539 C-2.15164352 50.79223892 -2.15802338 49.72095245 -2.16459656 48.61720276 C-2.16570938 47.45575241 -2.1668222 46.29430206 -2.16796875 45.09765625 C-2.17129715 43.90901474 -2.17462555 42.72037323 -2.17805481 41.49571228 C-2.18312499 38.97802112 -2.18546311 36.46032322 -2.18530273 33.94262695 C-2.18748891 30.08208188 -2.20564312 26.22182258 -2.22460938 22.36132812 C-2.22754328 19.91927181 -2.22952809 17.47721414 -2.23046875 15.03515625 C-2.23765427 13.87573013 -2.24483978 12.71630402 -2.25224304 11.52174377 C-2.24916641 10.44730515 -2.24608978 9.37286652 -2.24291992 8.26586914 C-2.24505745 6.84595421 -2.24505745 6.84595421 -2.24723816 5.39735413 C-2 3 -2 3 0 0 Z " fill="#212731" transform="translate(521,47)"/>
<path d="M0 0 C5.47433767 2.63579221 7.26915846 5.83090708 10 11 C12.30973002 12.15486501 13.48691137 12.08369275 16.04736328 12.00244141 C16.88228302 11.97977203 17.71720276 11.95710266 18.5774231 11.93374634 C19.4825766 11.90662567 20.3877301 11.879505 21.3203125 11.8515625 C23.23694396 11.81453664 25.15361354 11.77944278 27.0703125 11.74609375 C30.09283539 11.69073798 33.11332051 11.62538085 36.13476562 11.52685547 C39.0511136 11.4354204 41.96534093 11.38973069 44.8828125 11.3515625 C46.22232468 11.29266342 46.22232468 11.29266342 47.58889771 11.23257446 C53.81018194 11.20520413 56.84840789 12.77247092 61.25506592 17.13809204 C61.83089417 17.75252167 62.40672241 18.36695129 63 19 C64.34880249 20.33973877 64.34880249 20.33973877 65.72485352 21.70654297 C66.91485962 22.96168701 66.91485962 22.96168701 68.12890625 24.2421875 C69.01900391 25.16257812 69.90910156 26.08296875 70.82617188 27.03125 C72.20238257 28.46148752 73.5784652 29.8919533 74.93920898 31.33691406 C76.27979226 32.75649557 77.64165499 34.15588563 79.00390625 35.5546875 C79.79611572 36.38468262 80.5883252 37.21467773 81.40454102 38.06982422 C87.7181939 42.76512473 97.21120658 41.09496862 104.703125 41.02734375 C106.71157091 41.01793613 108.72001696 41.00853996 110.72846603 40.99983311 C115.66018613 40.97694679 120.59182129 40.94310304 125.5234375 40.90405273 C128.30084199 40.88247013 131.07818384 40.86619766 133.85565186 40.85560608 C136.46771916 40.84524169 139.07976909 40.82663051 141.69171143 40.79905701 C142.87013611 40.79567825 144.04856079 40.7922995 145.26269531 40.78881836 C146.3008136 40.78136093 147.33893188 40.7739035 148.4085083 40.76622009 C151 41 151 41 154 43 C153.67 43.99 153.34 44.98 153 46 C141.92440339 46.84518742 130.85250701 47.42391657 119.75 47.75 C118.93593311 47.77396851 118.12186623 47.79793701 117.28313065 47.82263184 C84.4653037 48.67619764 84.4653037 48.67619764 75.55661011 41.57373047 C71.90506626 38.01908035 68.95376517 34.15890665 66.03198242 29.9987793 C59.60324623 20.83967739 59.60324623 20.83967739 49.56494141 16.67382812 C36.45062729 15.19120438 23.05560779 16.42641019 10 18 C9.38640625 19.10730469 8.7728125 20.21460938 8.140625 21.35546875 C5.53781048 26.05256471 2.37906055 28.72752837 -2.6875 30.5625 C-7.40856175 31.57479597 -10.71467086 29.87261411 -14.79296875 27.5546875 C-19.03930653 24.56346195 -20.59562516 21.48270775 -21.9375 16.5625 C-22.01545535 12.11904489 -21.00416926 9.93125508 -19 6 C-18.67 5.34 -18.34 4.68 -18 4 C-17.34 4 -16.68 4 -16 4 C-16 3.34 -16 2.68 -16 2 C-10.5704732 -1.5720571 -6.12117346 -1.44555399 0 0 Z M-16 9 C-16.80962207 14.29237163 -16.92487122 18.63989527 -13.875 23.125 C-10.62590542 25.24397473 -8.87974077 26 -5 26 C-0.66316604 24.72885901 1.50377594 23.58528992 4.4375 20.125 C6.05729331 16.88541338 6.70387402 15.5193701 6 12 C3.6768473 7.69786538 1.51265246 4.9811645 -3 3 C-8.5300615 2.00742486 -12.23634319 5.23634319 -16 9 Z " fill="#3195D7" transform="translate(75,45)"/>
<path d="M0 0 C0.66032227 -0.0049649 1.32064453 -0.00992981 2.00097656 -0.01504517 C4.18816157 -0.02966657 6.37527413 -0.03646762 8.5625 -0.04199219 C10.07942711 -0.04774231 11.59635419 -0.05350006 13.11328125 -0.05926514 C16.29427429 -0.06977413 19.47524204 -0.0756179 22.65625 -0.07910156 C26.73883359 -0.08459547 30.8210852 -0.10864266 34.90356445 -0.13707352 C38.0364684 -0.15566293 41.16929164 -0.16090344 44.30224609 -0.16243744 C45.80779848 -0.16547135 47.31334919 -0.17352464 48.81884766 -0.18662262 C50.92115873 -0.20361177 53.02264881 -0.20182143 55.125 -0.1953125 C56.32253906 -0.19895813 57.52007812 -0.20260376 58.75390625 -0.20635986 C59.68074219 -0.08508728 60.60757813 0.0361853 61.5625 0.16113281 C62.5525 1.64613281 62.5525 1.64613281 63.5625 3.16113281 C59.9771114 5.55139188 58.42329357 5.4021994 54.16674805 5.38476562 C53.5224585 5.38517349 52.87816895 5.38558136 52.21435547 5.38600159 C50.81642316 5.38619899 49.41848531 5.3821643 48.02057457 5.37439728 C45.80477164 5.36416804 43.58953095 5.36955756 41.37373352 5.37982178 C35.07433221 5.40778748 28.77524603 5.42032357 22.47583008 5.39111328 C18.62056614 5.3743568 14.76630647 5.38674169 10.91114235 5.41756439 C9.44520297 5.42365728 7.97917456 5.41882884 6.51331139 5.40268707 C-1.39251921 5.03911797 -1.39251921 5.03911797 -8.63583374 7.54577637 C-10.45629374 9.33320291 -10.45629374 9.33320291 -12.4375 12.16113281 C-13.0975 12.16113281 -13.7575 12.16113281 -14.4375 12.16113281 C-14.4375 12.82113281 -14.4375 13.48113281 -14.4375 14.16113281 C-15.0975 14.16113281 -15.7575 14.16113281 -16.4375 14.16113281 C-16.664375 14.73863281 -16.89125 15.31613281 -17.125 15.91113281 C-18.96033958 19.05742924 -20.24608282 20.2728899 -23.4375 22.16113281 C-27.50503799 22.71354678 -31.5352245 22.60163864 -35.6328125 22.51660156 C-36.81720917 22.5085701 -38.00160583 22.50053864 -39.22189331 22.49226379 C-43.00255197 22.46327861 -46.78219103 22.40701689 -50.5625 22.34863281 C-54.34981736 22.30614611 -58.13711119 22.26928071 -61.92453003 22.23713684 C-64.2806659 22.21541497 -66.63674963 22.18671664 -68.9927063 22.1504364 C-70.58983963 22.13095695 -70.58983963 22.13095695 -72.21923828 22.11108398 C-73.15679962 22.09679855 -74.09436096 22.08251312 -75.06033325 22.0677948 C-77.58798779 22.0564268 -77.58798779 22.0564268 -80.4375 23.16113281 C-81.7463697 24.92283462 -81.7463697 24.92283462 -82.875 27.03613281 C-84.66623202 30.24025082 -86.2202715 32.31305759 -89.4375 34.16113281 C-94.74083298 35.12920153 -100.10370337 35.33693875 -104.99609375 32.87207031 C-108.45186962 30.09476787 -110.74004998 27.36168598 -112.0625 23.09863281 C-112.45319624 18.99632234 -112.12488592 16.87338183 -110.4375 13.16113281 C-110.19 12.45988281 -109.9425 11.75863281 -109.6875 11.03613281 C-107.20986413 7.31967901 -104.13256043 5.55656296 -99.80859375 4.54785156 C-95.16240472 3.92203835 -92.2985584 3.75408702 -88 5.78613281 C-84.20768507 9.30096128 -81.53008786 12.05517769 -80.4375 17.16113281 C-72.59416313 17.40055006 -64.75531801 17.51906523 -56.90844727 17.55786133 C-54.24257322 17.57639113 -51.58796378 17.63813976 -48.92211914 17.7199707 C-31.20008328 18.70295385 -31.20008328 18.70295385 -16.16090393 10.74293518 C-13.78344273 8.15584938 -11.59186561 5.50586981 -9.57435608 2.62879944 C-7.04437772 -0.63737019 -3.84789448 0.02193952 0 0 Z M-105.4375 12.16113281 C-107.43474841 16.15562963 -107.06816345 20.82766315 -106.4375 25.16113281 C-103.71254488 28.81830943 -102.36472354 29.82780799 -97.953125 30.59082031 C-93.88999765 30.79517879 -91.31935226 30.7784294 -87.9375 28.41113281 C-85.358143 24.54209731 -83.75533859 21.93626265 -84.4375 17.16113281 C-86.7577901 12.86429929 -88.90915061 10.10185398 -93.4375 8.16113281 C-98.67848794 7.38056014 -101.3502126 8.92932417 -105.4375 12.16113281 Z " fill="#2F8FD1" transform="translate(165.4375,108.8388671875)"/>
<path d="M0 0 C1.17433594 0.01417969 2.34867187 0.02835938 3.55859375 0.04296875 C5.32396484 0.05263672 5.32396484 0.05263672 7.125 0.0625 C9.99609375 0.23046875 9.99609375 0.23046875 10.99609375 1.23046875 C11.09503153 3.00492884 11.12408467 4.78333126 11.12548828 6.56054688 C11.12864044 7.69842651 11.1317926 8.83630615 11.13504028 10.00866699 C11.13301605 11.24717407 11.13099182 12.48568115 11.12890625 13.76171875 C11.13034134 15.65380066 11.13034134 15.65380066 11.13180542 17.58410645 C11.1324875 20.25744013 11.13112904 22.93068312 11.12646484 25.60400391 C11.12076756 29.03753566 11.12404676 32.47098925 11.13003731 35.90451813 C11.13451137 39.16942118 11.13138258 42.43431468 11.12890625 45.69921875 C11.13093048 46.93772583 11.13295471 48.17623291 11.13504028 49.45227051 C11.13188812 50.59015015 11.12873596 51.72802979 11.12548828 52.90039062 C11.12469269 53.90775269 11.12389709 54.91511475 11.12307739 55.95300293 C10.99609375 58.23046875 10.99609375 58.23046875 9.99609375 59.23046875 C7.83128578 59.32939815 5.6631559 59.36017975 3.49609375 59.35546875 C2.31015625 59.35804687 1.12421875 59.360625 -0.09765625 59.36328125 C-3.00390625 59.23046875 -3.00390625 59.23046875 -4.00390625 58.23046875 C-4.1374992 56.49300053 -4.20286503 54.75023664 -4.2409668 53.00805664 C-4.2673674 51.89342545 -4.29376801 50.77879425 -4.32096863 49.63038635 C-4.34395523 48.41689011 -4.36694183 47.20339386 -4.390625 45.953125 C-4.41614944 44.71630478 -4.44167389 43.47948456 -4.4679718 42.20518494 C-4.52009028 39.58321125 -4.56950361 36.96118263 -4.61645508 34.33911133 C-4.66483491 31.64327943 -4.72030902 28.9477463 -4.7824707 26.25219727 C-4.87036427 22.38180056 -4.9447812 18.51136704 -5.015625 14.640625 C-5.0446843 13.42915298 -5.07374359 12.21768097 -5.10368347 10.96949768 C-5.12062759 9.85171432 -5.13757172 8.73393097 -5.1550293 7.58227539 C-5.17421921 6.59489883 -5.19340912 5.60752228 -5.21318054 4.59022522 C-4.87877425 0.81949259 -3.6605174 0.28084594 0 0 Z " fill="#212730" transform="translate(329.00390625,46.76953125)"/>
<path d="M0 0 C5.45323377 3.00139223 7.12976556 7.09060035 8.8125 12.875 C8.8125 17.57296025 7.46154663 20.60554575 4.8125 24.4375 C0.71880252 28.42885504 -2.0113703 29.27630521 -7.5625 29.6875 C-12.80652259 29.32584327 -15.87307302 27.86146257 -19.4375 24 C-21.1875 21.4375 -21.1875 21.4375 -23.1875 17.4375 C-46.2875 17.1075 -69.3875 16.7775 -93.1875 16.4375 C-93.1875 12.4375 -93.1875 12.4375 -92.1875 11.4375 C-90.07135022 11.36094363 -87.95264114 11.35462141 -85.83520508 11.375 C-84.45945911 11.3844488 -83.0837113 11.39363211 -81.70796204 11.40258789 C-80.60840903 11.41202927 -80.60840903 11.41202927 -79.48664284 11.42166138 C-75.61284692 11.44857631 -71.73909761 11.43875531 -67.86523438 11.43359375 C-62.9314132 11.4273881 -57.99873591 11.43262584 -53.06518555 11.48876953 C-49.0822539 11.53312264 -45.10143146 11.5335384 -41.11838341 11.50463867 C-39.6021474 11.50156245 -38.08579004 11.5144159 -36.56983376 11.54370117 C-28.17265486 11.98982529 -28.17265486 11.98982529 -20.99081421 8.43530273 C-19.35593936 6.06330778 -19.35593936 6.06330778 -18.23686218 3.5703125 C-17.1875 1.4375 -17.1875 1.4375 -14.25 -0.625 C-9.03347927 -2.2218941 -4.99759332 -2.15109768 0 0 Z M-16.1875 6.4375 C-18.60410392 10.13211561 -18.39302009 13.00502072 -17.78515625 17.24609375 C-16.81325756 20.80972226 -15.17735323 22.3576021 -12.1875 24.4375 C-8.52585885 25.41829674 -6.11427937 25.66919484 -2.4375 24.75 C0.24705851 23.18400754 1.35860835 22.19989413 2.8125 19.4375 C3.82641117 14.94732198 4.14010405 12.52268841 2.8125 8.125 C0.23243404 4.65803636 -2.11661166 3.74599982 -6.1875 2.4375 C-10.14811609 2.4375 -13.11442792 4.03828228 -16.1875 6.4375 Z " fill="#3390CE" transform="translate(112.1875,79.5625)"/>
<path d="M0 0 C4.47894102 2.4758368 8.28506322 5.63001167 11 10 C12.04475006 15.11927528 11.510519 19.84901764 9 24.4375 C6.07846192 28.52270156 2.85531817 30.04561494 -2 31 C-6.12154505 31.49742785 -8.30317525 31.327081 -12.0625 29.5625 C-15 27 -15 27 -15.86355591 24.81959534 C-17.18047578 21.6817485 -18.30617197 20.122905 -21 18 C-27.69383316 16.1634592 -35.0581619 16.81486358 -41.9296875 16.90234375 C-44.00620936 16.89668934 -46.08272391 16.88707677 -48.15921021 16.87367249 C-53.61446052 16.84906861 -59.06814902 16.87814419 -64.52325439 16.91845703 C-70.09368262 16.95010546 -75.66391118 16.93091188 -81.234375 16.91601562 C-92.15665324 16.89429169 -103.07795642 16.92928352 -114 17 C-113.505 15.515 -113.505 15.515 -113 14 C-107.71956359 13.1197774 -102.65830293 12.86179442 -97.31079102 12.88647461 C-96.47096176 12.88632858 -95.63113251 12.88618256 -94.76585388 12.8860321 C-92.01184433 12.88672436 -89.25790387 12.89448437 -86.50390625 12.90234375 C-84.58577003 12.90421037 -82.66763333 12.90563312 -80.74949646 12.90663147 C-75.71732247 12.9104374 -70.68517765 12.92025117 -65.65301514 12.93133545 C-60.51151931 12.94159102 -55.37001874 12.94613796 -50.22851562 12.95117188 C-40.15233098 12.96187525 -30.07616792 12.97892845 -20 13 C-19.70609375 12.22914062 -19.4121875 11.45828125 -19.109375 10.6640625 C-17.32688303 6.38357121 -15.1229023 3.7400947 -11.25 1.1875 C-7.35106756 -0.23710993 -4.05185026 -0.94669399 0 0 Z M-14 10 C-14.33 10.33 -14.66 10.66 -15 11 C-15.56601461 15.49100115 -15.59239688 18.96879061 -13.3125 22.9375 C-9.62723317 26.2243596 -7.40348131 27.07386744 -2.4375 26.8125 C0.91311581 26.02053626 2.59244126 25.40755874 5 23 C6.456318 18.631046 6.73996466 14.55586086 6 10 C3.34004615 6.58980275 1.92989716 5.40629414 -2.2265625 4.53125 C-7.88097421 4.15302848 -10.42170534 5.41530996 -14 10 Z " fill="#3098DE" transform="translate(132,10)"/>
<path d="M0 0 C2.42116971 2.15920893 3.01458065 3.3392537 4.38964844 6.49829102 C5.67097908 8.78773954 6.27027467 9.69581788 8.78942871 10.52828979 C11.34528552 10.78378854 13.82225338 10.8181127 16.390625 10.77734375 C17.3171991 10.78963516 18.24377319 10.80192657 19.19842529 10.81459045 C22.15392002 10.8463497 25.1069267 10.8300355 28.0625 10.8125 C30.06773155 10.82560715 32.07294525 10.84184606 34.078125 10.86132812 C38.99011509 10.90220867 43.90042111 10.89998418 48.8125 10.875 C48.8125 11.865 48.8125 12.855 48.8125 13.875 C45.47324237 15.54462882 41.73644812 14.80069073 38.078125 14.65625 C36.28912582 14.60949014 34.50005795 14.56530091 32.7109375 14.5234375 C29.88712797 14.45571318 27.06704685 14.37520016 24.24511719 14.25097656 C13.71342562 13.2764566 13.71342562 13.2764566 4.32763672 16.82397461 C2.70489937 19.17028069 2.70489937 19.17028069 1.74267578 21.67358398 C0.67098028 24.20992999 -0.22996858 25.02978456 -2.5625 26.4375 C-7.06747634 28.22395613 -9.37586755 28.48600095 -14.1875 27.875 C-19.04370467 25.26012056 -23.40634276 22.21847171 -25.1875 16.875 C-25.89863511 12.32535153 -26.19832791 8.4623359 -23.66015625 4.4765625 C-21.91441674 2.49877173 -20.12961359 0.6587638 -18.1875 -1.125 C-17.8575 -1.455 -17.5275 -1.785 -17.1875 -2.125 C-10.71579972 -3.41934006 -5.62766916 -3.75177944 0 0 Z M-18.5 4.625 C-20.64329322 7.48272429 -21.04501783 9.31294581 -21.1875 12.875 C-20.21197345 17.30921158 -18.92732498 20.21775594 -15.1875 22.875 C-11.2862298 24.06909947 -8.26506932 24.2913336 -4.4375 22.8125 C-1.00597894 19.85757909 1.41105092 16.8822454 2.3125 12.375 C1.58513099 8.73815497 0.20881416 6.70142183 -2.1875 3.875 C-8.2863404 0.30624623 -12.68107401 0.22148844 -18.5 4.625 Z " fill="#2C98DD" transform="translate(179.1875,36.125)"/>
<path d="M0 0 C0.66 0 1.32 0 2 0 C1.98839844 0.81984375 1.97679688 1.6396875 1.96484375 2.484375 C1.95582031 3.56203125 1.94679688 4.6396875 1.9375 5.75 C1.92589844 6.81734375 1.91429688 7.8846875 1.90234375 8.984375 C1.98489913 11.53368501 2.25382442 13.57933591 3 16 C-0.78496138 14.48601545 -1.0072198 13.9855604 -3 10 C-25.77 9.67 -48.54 9.34 -72 9 C-72 8.01 -72 7.02 -72 6 C-70.73212898 5.99120064 -70.73212898 5.99120064 -69.43864441 5.98222351 C-61.47795735 5.92435058 -53.51755248 5.85230526 -45.5571394 5.76428509 C-41.46446382 5.71953281 -37.3718889 5.68028768 -33.27905273 5.65356445 C-29.33016285 5.62757951 -25.38165934 5.587212 -21.43300819 5.53681374 C-19.92555861 5.52011229 -18.41804214 5.50861844 -16.91051292 5.50238609 C-14.80084989 5.4927801 -12.69218261 5.46476581 -10.58276367 5.43237305 C-8.78073738 5.41571846 -8.78073738 5.41571846 -6.94230652 5.39872742 C-4.01109051 5.24707527 -4.01109051 5.24707527 -2.15107727 3.59797668 C-0.92896581 1.9911867 -0.92896581 1.9911867 0 0 Z " fill="#29A0EE" transform="translate(92,87)"/>
<path d="M0 0 C1.51598426 0.01120112 3.03199034 0.01973698 4.54800415 0.02572632 C8.52370968 0.04855359 12.49808426 0.10742078 16.4732666 0.1739502 C20.53538002 0.2355066 24.59771011 0.2627696 28.66015625 0.29296875 C36.6204001 0.35717292 44.57956539 0.45947489 52.5390625 0.5859375 C52.5390625 1.5759375 52.5390625 2.5659375 52.5390625 3.5859375 C51.2899836 3.59473686 51.2899836 3.59473686 50.01567078 3.60371399 C42.17271015 3.66158859 34.33003591 3.73363485 26.48735332 3.82165241 C22.45521221 3.86640338 18.42317323 3.90564878 14.39086914 3.93237305 C10.50033087 3.95835932 6.61018467 3.99872773 2.71988869 4.04912376 C1.23476852 4.06582431 -0.25041951 4.07731873 -1.7356205 4.08355141 C-3.81415655 4.0931584 -5.89168235 4.12117371 -7.9699707 4.15356445 C-9.15355667 4.16466751 -10.33714264 4.17577057 -11.55659485 4.18721008 C-14.83580596 4.63740193 -15.28575798 5.30370382 -17.4609375 7.5859375 C-19.6484375 7.2734375 -19.6484375 7.2734375 -21.4609375 6.5859375 C-16.02951679 -1.32841839 -8.72646609 -0.18929263 0 0 Z " fill="#2BA0EE" transform="translate(173.4609375,110.4140625)"/>
<path d="M0 0 C6.77692859 -0.0255305 13.55384459 -0.0429421 20.33081055 -0.05493164 C22.63224755 -0.05993441 24.93368142 -0.06673872 27.23510742 -0.07543945 C30.55908995 -0.08768381 33.88303014 -0.09326903 37.20703125 -0.09765625 C38.2220723 -0.10281754 39.23711334 -0.10797882 40.28291321 -0.11329651 C46.90771823 -0.113807 53.41384561 0.28797376 60 1 C60.495 2.485 60.495 2.485 61 4 C40.87 4 20.74 4 0 4 C0 2.68 0 1.36 0 0 Z " fill="#1FA5EA" transform="translate(165,86)"/>
<path d="M0 0 C0.66032227 -0.0049649 1.32064453 -0.00992981 2.00097656 -0.01504517 C4.18816157 -0.02966657 6.37527413 -0.03646762 8.5625 -0.04199219 C10.07942711 -0.04774231 11.59635419 -0.05350006 13.11328125 -0.05926514 C16.29427429 -0.06977413 19.47524204 -0.0756179 22.65625 -0.07910156 C26.73883359 -0.08459547 30.8210852 -0.10864266 34.90356445 -0.13707352 C38.0364684 -0.15566293 41.16929164 -0.16090344 44.30224609 -0.16243744 C45.80779848 -0.16547135 47.31334919 -0.17352464 48.81884766 -0.18662262 C50.92115873 -0.20361177 53.02264881 -0.20182143 55.125 -0.1953125 C56.32253906 -0.19895813 57.52007812 -0.20260376 58.75390625 -0.20635986 C60.14416016 -0.02445099 60.14416016 -0.02445099 61.5625 0.16113281 C62.5525 1.64613281 62.5525 1.64613281 63.5625 3.16113281 C62.5725 3.49113281 61.5825 3.82113281 60.5625 4.16113281 C60.5625 3.50113281 60.5625 2.84113281 60.5625 2.16113281 C51.78243424 2.17601348 43.0030182 2.21763183 34.22326374 2.29322338 C30.14624514 2.32748884 26.06960105 2.35260258 21.99243164 2.35668945 C18.05633916 2.36097351 14.12109144 2.38944358 10.18526268 2.43456459 C8.68504955 2.44753643 7.18473531 2.45184833 5.68447304 2.44728661 C3.57949685 2.44237763 1.47698702 2.46847756 -0.62768555 2.50170898 C-2.42305 2.51170174 -2.42305 2.51170174 -4.25468445 2.52189636 C-8.30250551 3.33486046 -9.81925492 5.05770725 -12.4375 8.16113281 C-11.7775 8.82113281 -11.1175 9.48113281 -10.4375 10.16113281 C-14.1875 12.16113281 -14.1875 12.16113281 -16.4375 12.16113281 C-18.14430947 13.78666564 -19.81410195 15.45229276 -21.4375 17.16113281 C-22.0975 16.83113281 -22.7575 16.50113281 -23.4375 16.16113281 C-20.9832323 13.67791277 -18.52341435 11.20026469 -16.0625 8.72363281 C-15.36382812 8.01658203 -14.66515625 7.30953125 -13.9453125 6.58105469 C-13.275 5.90751953 -12.6046875 5.23398438 -11.9140625 4.54003906 C-11.29611816 3.91685791 -10.67817383 3.29367676 -10.04150391 2.65161133 C-6.85132756 -0.31277628 -4.24727853 0.02421669 0 0 Z " fill="#328EC8" transform="translate(165.4375,108.8388671875)"/>
<path d="M0 0 C0.495 1.98 0.495 1.98 1 4 C0.34 4 -0.32 4 -1 4 C-1.28875 4.61875 -1.5775 5.2375 -1.875 5.875 C-3 8 -3 8 -5 10 C-7.42222595 10.27174377 -7.42222595 10.27174377 -10.50366211 10.30297852 C-12.23071632 10.32794151 -12.23071632 10.32794151 -13.99266052 10.35340881 C-15.86607872 10.36603004 -15.86607872 10.36603004 -17.77734375 10.37890625 C-19.05476944 10.39590073 -20.33219513 10.4128952 -21.64833069 10.43040466 C-25.04857179 10.47464285 -28.44869255 10.51091374 -31.84906006 10.54260254 C-36.63813273 10.58823008 -41.42705871 10.6442236 -46.21595764 10.70530701 C-48.76670888 10.73730706 -51.31753037 10.76418362 -53.86839294 10.78553772 C-55.02291458 10.79902756 -56.17743622 10.8125174 -57.36694336 10.82641602 C-58.38461288 10.83592789 -59.40228241 10.84543976 -60.45079041 10.85523987 C-63.87488623 11.04968154 -65.55537867 11.55537867 -68 14 C-70 12 -70 12 -70.1953125 9.8359375 C-70.17210938 9.02382812 -70.14890625 8.21171875 -70.125 7.375 C-70.10695313 6.55773437 -70.08890625 5.74046875 -70.0703125 4.8984375 C-70.04710938 4.27195312 -70.02390625 3.64546875 -70 3 C-69.34 3 -68.68 3 -68 3 C-66.375 5.5 -66.375 5.5 -65 8 C-57.41921225 7.9075612 -49.83873943 7.80023305 -42.25830078 7.68261719 C-39.68022426 7.64436583 -37.10209508 7.60950629 -34.52392578 7.578125 C-30.81523838 7.53239167 -27.10691237 7.47440959 -23.3984375 7.4140625 C-22.24822113 7.40251129 -21.09800476 7.39096008 -19.91293335 7.37905884 C-10.21773934 7.26168531 -10.21773934 7.26168531 -2.125 2.375 C-1.073125 1.199375 -1.073125 1.199375 0 0 Z " fill="#209AE8" transform="translate(150,119)"/>
<path d="M0 0 C5.47433767 2.63579221 7.26915846 5.83090708 10 11 C12.73678725 12.36839363 15.04264424 12.21634818 18.1015625 12.31640625 C19.31328125 12.35830078 20.525 12.40019531 21.7734375 12.44335938 C23.04445312 12.48267578 24.31546875 12.52199219 25.625 12.5625 C26.90375 12.60568359 28.1825 12.64886719 29.5 12.69335938 C32.66655348 12.79969886 35.83318753 12.90172833 39 13 C39 13.33 39 13.66 39 14 C34.41671978 14.05802751 29.83353396 14.09360593 25.25 14.125 C23.94804688 14.14175781 22.64609375 14.15851562 21.3046875 14.17578125 C20.05429688 14.18222656 18.80390625 14.18867187 17.515625 14.1953125 C16.36352539 14.20578613 15.21142578 14.21625977 14.02441406 14.22705078 C11.10107034 14.00758762 9.46267491 13.52728122 7 12 C7 13.65 7 15.3 7 17 C6.67 17 6.34 17 6 17 C5.85304688 16.39671875 5.70609375 15.7934375 5.5546875 15.171875 C4.36570292 10.93526327 3.49290751 8.47050262 0.25 5.375 C-3.81333617 3.65589624 -5.77511189 3.79288911 -10 5 C-12.17438307 6.18993711 -14.01254509 7.49729019 -16 9 C-15.67 7.68 -15.34 6.36 -15 5 C-15.99 5.33 -16.98 5.66 -18 6 C-18 5.34 -18 4.68 -18 4 C-17.34 4 -16.68 4 -16 4 C-16 3.34 -16 2.68 -16 2 C-10.5704732 -1.5720571 -6.12117346 -1.44555399 0 0 Z " fill="#3190D2" transform="translate(75,45)"/>
<path d="M0 0 C3.0102009 1.65677724 4.42447166 3.07373397 5.75 6.25 C6.96350969 10.43856572 7.11764712 14.161764 6.75 18.5 C6.09 19.49 5.43 20.48 4.75 21.5 C4.09 21.17 3.43 20.84 2.75 20.5 C3.08 19.84 3.41 19.18 3.75 18.5 C3.97467831 16.96331135 4.15796805 15.42031946 4.3125 13.875 C4.39628906 13.05773437 4.48007813 12.24046875 4.56640625 11.3984375 C4.65728516 10.45871094 4.65728516 10.45871094 4.75 9.5 C3.76 9.5 2.77 9.5 1.75 9.5 C1.42 8.18 1.09 6.86 0.75 5.5 C-5.93764044 3.63947669 -5.93764044 3.63947669 -12.6875 4.5 C-15.69754954 6.84930696 -16.84338639 8.98346598 -18.25 12.5 C-19.40627341 9.03117978 -19.90201744 7.12231912 -19.25 3.5 C-13.56421696 -2.04147382 -7.27385069 -2.95997939 0 0 Z " fill="#2F9ADD" transform="translate(112.25,79.5)"/>
<path d="M0 0 C1.32 0.33 2.64 0.66 4 1 C6.1694408 1.1472796 8.34229053 1.2472547 10.515625 1.31640625 C11.76601562 1.35830078 13.01640625 1.40019531 14.3046875 1.44335938 C15.60664062 1.48267578 16.90859375 1.52199219 18.25 1.5625 C19.56742188 1.60568359 20.88484375 1.64886719 22.2421875 1.69335938 C25.49468788 1.79941917 28.74726392 1.90148024 32 2 C32.33 1.34 32.66 0.68 33 0 C33.66 0 34.32 0 35 0 C35 0.66 35 1.32 35 2 C39.29 2 43.58 2 48 2 C48 2.66 48 3.32 48 4 C46.03208496 4.01401855 46.03208496 4.01401855 44.02441406 4.02832031 C39.15623029 4.06819661 34.28868005 4.13394913 29.42089844 4.20751953 C27.3142104 4.23574279 25.2074162 4.25695056 23.10058594 4.27099609 C20.0717122 4.29240661 17.04411669 4.3390476 14.015625 4.390625 C13.07382385 4.39185364 12.13202271 4.39308228 11.16168213 4.39434814 C5.90128284 4.42261137 5.90128284 4.42261137 1.49902344 7.03808594 C0.75700684 8.0092334 0.75700684 8.0092334 0 9 C-0.66 9 -1.32 9 -2 9 C-1.34 6.03 -0.68 3.06 0 0 Z " fill="#20A0F0" transform="translate(82,57)"/>
<path d="M0 0 C4.55619725 0.27613317 7.06357653 2.35163391 10.44921875 5.13671875 C12 7 12 7 14 13 C31.82 13 49.64 13 68 13 C68 13.33 68 13.66 68 14 C60.36514548 14.24403251 52.72988465 14.45655855 45.09350586 14.64697266 C42.4946703 14.71552123 39.89601607 14.79133916 37.29760742 14.87451172 C33.56712995 14.99266842 29.83678589 15.08484885 26.10546875 15.171875 C24.93976852 15.21439392 23.7740683 15.25691284 22.57304382 15.30072021 C21.49214981 15.32104309 20.4112558 15.34136597 19.29760742 15.36230469 C18.34496506 15.38895203 17.39232269 15.41559937 16.41081238 15.4430542 C14 15 14 15 12.23139954 13.03985596 C11.82503769 12.36670349 11.41867584 11.69355103 11 11 C10.67 10.67 10.34 10.34 10 10 C9.67 10.99 9.34 11.98 9 13 C8.4225 12.071875 7.845 11.14375 7.25 10.1875 C5.28365288 7.40184158 3.81962028 5.81261304 1 4 C1.99 4 2.98 4 4 4 C4 3.34 4 2.68 4 2 C2.68 2 1.36 2 0 2 C0 1.34 0 0.68 0 0 Z " fill="#3894D0" transform="translate(71,113)"/>
<path d="M0 0 C0.66 0.33 1.32 0.66 2 1 C3.35752296 1.11704964 4.72025888 1.17677189 6.08251953 1.20532227 C6.92324005 1.22526749 7.76396057 1.24521271 8.63015747 1.26576233 C9.99272171 1.29083107 9.99272171 1.29083107 11.3828125 1.31640625 C12.77691849 1.3475779 12.77691849 1.3475779 14.19918823 1.37937927 C17.1743821 1.44487646 20.14966577 1.50376052 23.125 1.5625 C25.13933228 1.60568506 27.15365541 1.64929934 29.16796875 1.69335938 C34.11188663 1.80055803 39.05589503 1.90182501 44 2 C44 2.99 44 3.98 44 5 C40.61606992 6.69196504 36.77522209 6.11986549 33.0546875 6.09765625 C32.1696756 6.0962413 31.2846637 6.09482635 30.37283325 6.09336853 C27.54018809 6.0877614 24.70762136 6.07520771 21.875 6.0625 C19.95703239 6.05748592 18.03906354 6.05292285 16.12109375 6.04882812 C11.41403218 6.03778966 6.7070294 6.02052025 2 6 C0.68 8.31 -0.64 10.62 -2 13 C-2.33 13 -2.66 13 -3 13 C-3.25 10.25 -3.25 10.25 -3 7 C-1 4.625 -1 4.625 1 3 C0.67 2.01 0.34 1.02 0 0 Z " fill="#2E93D5" transform="translate(184,45)"/>
<path d="M0 0 C0 3 0 3 -1 8 C-29.71 8 -58.42 8 -88 8 C-88 7.67 -88 7.34 -88 7 C-59.95 6.67 -31.9 6.34 -3 6 C-2.34 4.35 -1.68 2.7 -1 1 C-0.67 0.67 -0.34 0.34 0 0 Z " fill="#2A8CCA" transform="translate(115,17)"/>
<path d="M0 0 C0 0.66 0 1.32 0 2 C1.32 2 2.64 2 4 2 C4 2.66 4 3.32 4 4 C3.40832031 4.03738281 2.81664063 4.07476562 2.20703125 4.11328125 C-2.56797099 4.51054897 -6.1045504 4.95668 -10 8 C-10.33 8.66 -10.66 9.32 -11 10 C-11.66 10 -12.32 10 -13 10 C-13 13.3 -13 16.6 -13 20 C-13.66 20.33 -14.32 20.66 -15 21 C-17.03185814 16.93628372 -16.2071855 12.07736461 -15.375 7.75 C-13.5449456 4.0898912 -11.60703153 2.87288176 -8 1 C-5.24195511 0.3635281 -2.81944511 0 0 0 Z " fill="#3094D9" transform="translate(71,113)"/>
<path d="M0 0 C1.93719378 -0.05406122 3.87481921 -0.09282025 5.8125 -0.125 C6.89144531 -0.14820312 7.97039062 -0.17140625 9.08203125 -0.1953125 C12 0 12 0 15 2 C14.67 2.99 14.34 3.98 14 5 C4.9250145 5.09262065 -4.14980868 5.16372426 -13.22516346 5.20724869 C-17.43909697 5.22813678 -21.65270748 5.25647611 -25.86645508 5.30175781 C-29.93187833 5.34517291 -33.99699064 5.3691279 -38.06262779 5.37950897 C-39.61483342 5.38690823 -41.16702175 5.40135723 -42.71909523 5.42292023 C-44.89098707 5.45189829 -47.06158899 5.45595861 -49.23364258 5.45410156 C-50.47052322 5.46298401 -51.70740387 5.47186646 -52.98176575 5.48101807 C-56 5 -56 5 -57.92289734 2.97161865 C-58.27834122 2.3209845 -58.6337851 1.67035034 -59 1 C-58.47621765 1.32342377 -57.9524353 1.64684753 -57.41278076 1.98007202 C-54.29771864 3.29686759 -51.77726401 3.28070755 -48.39550781 3.31884766 C-47.41439781 3.33391609 -47.41439781 3.33391609 -46.41346741 3.34928894 C-44.26002855 3.38008234 -42.1067138 3.39714496 -39.953125 3.4140625 C-38.45667455 3.43277729 -36.96023462 3.45235094 -35.46380615 3.4727478 C-31.53149622 3.52404238 -27.59915209 3.56368228 -23.66668701 3.60089111 C-19.65140338 3.64094761 -15.63626169 3.69203243 -11.62109375 3.7421875 C-3.74749286 3.83891508 4.12617837 3.92332987 12 4 C11.505 3.01 11.505 3.01 11 2 C8.41394668 1.5316735 8.41394668 1.5316735 5.4375 1.375 C4.42558594 1.30023438 3.41367188 1.22546875 2.37109375 1.1484375 C1.19740234 1.07496094 1.19740234 1.07496094 0 1 C0 0.67 0 0.34 0 0 Z " fill="#4A9BCC" transform="translate(214,86)"/>
<path d="M0 0 C0.66 0 1.32 0 2 0 C2.33 0.66 2.66 1.32 3 2 C23.295 2.495 23.295 2.495 44 3 C44 3.33 44 3.66 44 4 C30.14 4 16.28 4 2 4 C1.67 4.99 1.34 5.98 1 7 C0.34 7 -0.32 7 -1 7 C-1 9.31 -1 11.62 -1 14 C-2.32 14.33 -3.64 14.66 -5 15 C-3.33333333 10 -1.66666667 5 0 0 Z " fill="#289BE8" transform="translate(182,45)"/>
<path d="M0 0 C0.33 0 0.66 0 1 0 C1.02578125 0.74765625 1.0515625 1.4953125 1.078125 2.265625 C1.3675394 8.17988033 1.3675394 8.17988033 3.4375 13.625 C7.42021159 15.76206475 11.53806997 15.82969733 16 16 C15.67 16.66 15.34 17.32 15 18 C13.700625 17.979375 12.40125 17.95875 11.0625 17.9375 C9.70834367 17.91600546 8.35243917 17.92851801 7 18 C6.67 18.33 6.34 18.66 6 19 C8.97 19.33 11.94 19.66 15 20 C11 22 11 22 8.4921875 21.4609375 C7.62851563 21.10257813 6.76484375 20.74421875 5.875 20.375 C5.00617187 20.03210938 4.13734375 19.68921875 3.2421875 19.3359375 C0.71062735 17.82758633 0.0207792 16.71825471 -1 14 C1.475 15.485 1.475 15.485 4 17 C3.01 16.13375 3.01 16.13375 2 15.25 C-1.01105915 10.35702888 -0.32185363 5.60561742 0 0 Z " fill="#338FCA" transform="translate(58,54)"/>
<path d="M0 0 C4.02118642 2.06493357 6.01334998 3.92213943 8 8 C8 8.66 8 9.32 8 10 C7.34 10 6.68 10 6 10 C6 11.32 6 12.64 6 14 C5.34 13.67 4.68 13.34 4 13 C3.71125 12.05125 3.4225 11.1025 3.125 10.125 C1.85978705 6.61051957 1.13498285 5.87122679 -2 4 C-4.57873609 3.43015552 -4.57873609 3.43015552 -7.25 3.3125 C-8.14203125 3.24675781 -9.0340625 3.18101563 -9.953125 3.11328125 C-10.62859375 3.07589844 -11.3040625 3.03851563 -12 3 C-7.61991557 0.41535558 -4.88874887 1.18520852 0 2 C0 1.34 0 0.68 0 0 Z " fill="#2F97D8" transform="translate(176,35)"/>
<path d="M0 0 C1.14519012 2.29038024 1.07351912 3.53068537 1 6.0625 C1 7.361875 1 8.66125 1 10 C1.33 10.33 1.66 10.66 2 11 C2.33 7.7 2.66 4.4 3 1 C3.33 1 3.66 1 4 1 C4.01417969 1.74765625 4.02835938 2.4953125 4.04296875 3.265625 C4.21710601 9.43848269 4.21710601 9.43848269 7.1875 14.625 C10.18100607 16.08849186 12.69165353 16.69224684 16 17 C16 17.33 16 17.66 16 18 C8.61538462 18.36923077 8.61538462 18.36923077 5.5 16.5 C5.005 16.005 4.51 15.51 4 15 C5.32 16.65 6.64 18.3 8 20 C4.0234057 18.2957453 0.95711348 16.2853526 -0.765625 12.171875 C-2.15222078 7.51433533 -2.04758919 4.5501982 0 0 Z " fill="#3893CD" transform="translate(55,122)"/>
<path d="M0 0 C0.43570313 0.42152344 0.87140625 0.84304687 1.3203125 1.27734375 C5.11013459 4.76365195 7.64559734 6.73880963 13 7 C13 8.32 13 9.64 13 11 C9.79810278 11.48028458 7.67170359 11.39641523 4.85546875 9.734375 C-0.69179799 5.61640401 -0.69179799 5.61640401 -2 3 C-1.34 3 -0.68 3 0 3 C0 2.01 0 1.02 0 0 Z " fill="#3493D6" transform="translate(152,79)"/>
<path d="M0 0 C0.6875 1.75 0.6875 1.75 1 4 C-0.4375 6.25 -0.4375 6.25 -2 8 C-1.34 8.33 -0.68 8.66 0 9 C-5.00225113 12.00135068 -8.3160197 12.47366503 -14 12 C-14.66 11.34 -15.32 10.68 -16 10 C-13.03 10.33 -10.06 10.66 -7 11 C-7 10.34 -7 9.68 -7 9 C-9.97 8.67 -12.94 8.34 -16 8 C-15.67 7.34 -15.34 6.68 -15 6 C-13.783125 6.226875 -12.56625 6.45375 -11.3125 6.6875 C-8.2216967 7.07043138 -7.09797656 7.04046858 -4.125 5.8125 C-1.97192355 3.97605244 -0.99543855 2.624338 0 0 Z " fill="#3594D2" transform="translate(179,52)"/>
<path d="M0 0 C0.86625 0.804375 1.7325 1.60875 2.625 2.4375 C5.62876093 4.96924136 8.03203262 5.71657376 12 6 C11.67 6.66 11.34 7.32 11 8 C10.01 8.33 9.02 8.66 8 9 C9.65 9.33 11.3 9.66 13 10 C13 10.33 13 10.66 13 11 C7.30707666 11.45543387 4.3984985 10.68246386 0 7 C-1.375 4.75 -1.375 4.75 -2 3 C-1.34 3 -0.68 3 0 3 C0 2.01 0 1.02 0 0 Z " fill="#3594D8" transform="translate(117,30)"/>
<path d="M0 0 C0.66386719 0.65484375 1.32773437 1.3096875 2.01171875 1.984375 C5.70041279 4.47243529 8.53500029 4.46285166 12.8125 4.25 C13.50537109 4.23195312 14.19824219 4.21390625 14.91210938 4.1953125 C16.60867664 4.14851064 18.30452476 4.07677624 20 4 C19.34 5.32 18.68 6.64 18 8 C6.4287576 8.91485665 6.4287576 8.91485665 3.0234375 6.734375 C1.24476531 4.59164709 0 2.84564593 0 0 Z " fill="#299BE4" transform="translate(58,135)"/>
<path d="M0 0 C0.99 0.495 0.99 0.495 2 1 C3.35752296 1.11704964 4.72025888 1.17677189 6.08251953 1.20532227 C6.92324005 1.22526749 7.76396057 1.24521271 8.63015747 1.26576233 C9.99272171 1.29083107 9.99272171 1.29083107 11.3828125 1.31640625 C12.77691849 1.3475779 12.77691849 1.3475779 14.19918823 1.37937927 C17.1743821 1.44487646 20.14966577 1.50376052 23.125 1.5625 C25.13933228 1.60568506 27.15365541 1.64929934 29.16796875 1.69335938 C34.11188663 1.80055803 39.05589503 1.90182501 44 2 C44 2.99 44 3.98 44 5 C43.34 5.33 42.68 5.66 42 6 C42 5.01 42 4.02 42 3 C28.47 3 14.94 3 1 3 C0.67 2.01 0.34 1.02 0 0 Z " fill="#3788C1" transform="translate(184,45)"/>
<path d="M0 0 C0.99 0.33 1.98 0.66 3 1 C3 2.32 3 3.64 3 5 C2.34 5 1.68 5 1 5 C1 8.3 1 11.6 1 15 C0.01 15.495 0.01 15.495 -1 16 C-3.11912545 11.7617491 -2.25196473 6.88187654 -1 2.5 C-0.67 1.675 -0.34 0.85 0 0 Z " fill="#229DEA" transform="translate(57,118)"/>
<path d="M0 0 C0.33 0.99 0.66 1.98 1 3 C-0.6875 6.1875 -0.6875 6.1875 -3 9 C-6.11257569 9 -8.10765685 8.82638376 -11 8 C-10.236875 7.773125 -9.47375 7.54625 -8.6875 7.3125 C-5.42630188 5.71982185 -4.74776782 4.09831569 -3 1 C-2.01 0.67 -1.02 0.34 0 0 Z " fill="#3495DA" transform="translate(83,131)"/>
<path d="M0 0 C0.66 0.33 1.32 0.66 2 1 C-0.97 3.97 -0.97 3.97 -4 7 C-3.34 7.66 -2.68 8.32 -2 9 C-5.75 11 -5.75 11 -8 11 C-9.70680947 12.62553283 -11.37660195 14.29115995 -13 16 C-13.66 15.67 -14.32 15.34 -15 15 C-10.05 10.05 -5.1 5.1 0 0 Z " fill="#3492CC" transform="translate(157,110)"/>
<path d="M0 0 C2.5 1.375 2.5 1.375 5 3 C5 3.66 5 4.32 5 5 C7.97 5.33 10.94 5.66 14 6 C14 6.66 14 7.32 14 8 C12.22825181 7.91276622 10.45752623 7.80458345 8.6875 7.6875 C7.70136719 7.62949219 6.71523437 7.57148437 5.69921875 7.51171875 C3 7 3 7 1.14453125 5.70703125 C0 4 0 4 0 0 Z " fill="#269CEA" transform="translate(158,55)"/>
<path d="M0 0 C0.33 0 0.66 0 1 0 C1 3.96 1 7.92 1 12 C-0.32 11.67 -1.64 11.34 -3 11 C-4.25 8.4375 -4.25 8.4375 -5 6 C-4.360625 5.7525 -3.72125 5.505 -3.0625 5.25 C-0.81258459 4.18437567 -0.81258459 4.18437567 -0.25 1.875 C-0.1675 1.25625 -0.085 0.6375 0 0 Z " fill="#2C97E1" transform="translate(116,21)"/>
<path d="M0 0 C0.99 0 1.98 0 3 0 C5.25980539 4.51961078 5.31983581 8.04254494 5 13 C4.01 14.485 4.01 14.485 3 16 C2.34 15.67 1.68 15.34 1 15 C1.33 14.34 1.66 13.68 2 13 C2.22467831 11.46331135 2.40796805 9.92031946 2.5625 8.375 C2.64628906 7.55773437 2.73007813 6.74046875 2.81640625 5.8984375 C2.87699219 5.27195312 2.93757813 4.64546875 3 4 C2.01 3.67 1.02 3.34 0 3 C0 2.01 0 1.02 0 0 Z " fill="#21A0F1" transform="translate(114,85)"/>
<path d="M0 0 C1.051875 -0.02126953 1.051875 -0.02126953 2.125 -0.04296875 C4 0.1875 4 0.1875 6 2.1875 C4.68 2.1875 3.36 2.1875 2 2.1875 C2 2.8475 2 3.5075 2 4.1875 C2.66 4.5175 3.32 4.8475 4 5.1875 C0.7 5.5175 -2.6 5.8475 -6 6.1875 C-6 5.5275 -6 4.8675 -6 4.1875 C-5.01 3.8575 -4.02 3.5275 -3 3.1875 C-3.99 2.5275 -4.98 1.8675 -6 1.1875 C-3.77109005 0.07304502 -2.46944894 0.02269714 0 0 Z " fill="#3A94CC" transform="translate(128,9.8125)"/>
<path d="M0 0 C-0.33 0.66 -0.66 1.32 -1 2 C-1.99 2 -2.98 2 -4 2 C-4.268125 2.598125 -4.53625 3.19625 -4.8125 3.8125 C-5.98493467 5.97224808 -7.19369282 7.35790256 -9 9 C-9.1875 5.625 -9.1875 5.625 -9 2 C-5.5647952 -0.29013653 -4.014669 -0.17842973 0 0 Z " fill="#2A97DE" transform="translate(126,12)"/>
<path d="M0 0 C-0.33 0.99 -0.66 1.98 -1 3 C-2.98 3.33 -4.96 3.66 -7 4 C-7 3.34 -7 2.68 -7 2 C-8.32 2.33 -9.64 2.66 -11 3 C-7.16077997 -1.01373003 -5.47880919 -1.07194093 0 0 Z " fill="#3394D2" transform="translate(107,79)"/>
<path d="M0 0 C4.75 1.875 4.75 1.875 7 3 C7 3.66 7 4.32 7 5 C9.97 5.33 12.94 5.66 16 6 C12 8 12 8 9.4921875 7.4609375 C8.62851563 7.10257812 7.76484375 6.74421875 6.875 6.375 C6.00617187 6.03210938 5.13734375 5.68921875 4.2421875 5.3359375 C1.71062735 3.82758633 1.0207792 2.71825471 0 0 Z " fill="#3497D2" transform="translate(57,68)"/>
<path d="M0 0 C0.33 0 0.66 0 1 0 C1 1.65 1 3.3 1 5 C-1.63250388 6.31625194 -2.80179056 5.74813658 -5.625 5.0625 C-6.44226563 4.86785156 -7.25953125 4.67320313 -8.1015625 4.47265625 C-9.04128906 4.23869141 -9.04128906 4.23869141 -10 4 C-9.67 3.34 -9.34 2.68 -9 2 C-6.36 2 -3.72 2 -1 2 C-0.67 1.34 -0.34 0.68 0 0 Z " fill="#1DA5EF" transform="translate(74,69)"/>
<path d="M0 0 C0.33 1.32 0.66 2.64 1 4 C0.34 4 -0.32 4 -1 4 C-1.28875 4.639375 -1.5775 5.27875 -1.875 5.9375 C-3 8 -3 8 -5 9 C-5.33 8.01 -5.66 7.02 -6 6 C-4.02 4.02 -2.04 2.04 0 0 Z " fill="#2AA1DE" transform="translate(150,119)"/>
<path d="M0 0 C0.515625 0.268125 1.03125 0.53625 1.5625 0.8125 C4.66401415 2.32349407 7.82262806 3.65572726 11 5 C10.67 5.66 10.34 6.32 10 7 C7.29068581 6.84518205 5.53415961 6.51827919 3.5546875 4.59765625 C2.32320358 3.10228292 1.1570163 1.5537076 0 0 Z " fill="#219DEB" transform="translate(153,83)"/>
<path d="M0 0 C0.75 1.6875 0.75 1.6875 1 4 C-0.9375 6.75 -0.9375 6.75 -3 9 C-4.32 8.67 -5.64 8.34 -7 8 C-5.47005208 6.79557292 -3.94010417 5.59114583 -2.41015625 4.38671875 C-0.72844923 2.94316909 -0.72844923 2.94316909 0 0 Z " fill="#2E98DD" transform="translate(83,62)"/>
<path d="M0 0 C5.28 0 10.56 0 16 0 C16 0.99 16 1.98 16 3 C15.01 3.495 15.01 3.495 14 4 C14 3.01 14 2.02 14 1 C9.38 1 4.76 1 0 1 C0 0.67 0 0.34 0 0 Z " fill="#428BBC" transform="translate(212,47)"/>
<path d="M0 0 C1.32 0.33 2.64 0.66 4 1 C4 1.66 4 2.32 4 3 C1.04335481 4.4783226 -1.74229737 4.06032783 -5 4 C-5 3.34 -5 2.68 -5 2 C-3.35 2 -1.7 2 0 2 C0 1.34 0 0.68 0 0 Z " fill="#23A0E8" transform="translate(107,104)"/>
<path d="M0 0 C2.04119788 1.61594832 4.04072937 3.2856382 6 5 C6 5.66 6 6.32 6 7 C3.13275314 6.42655063 2.1385485 6.1385485 0 4 C0 2.68 0 1.36 0 0 Z " fill="#289BE4" transform="translate(130,59)"/>
<path d="M0 0 C0.66 0.99 1.32 1.98 2 3 C1.5390625 5.04296875 1.5390625 5.04296875 0.625 7.1875 C0.32851562 7.90292969 0.03203125 8.61835938 -0.2734375 9.35546875 C-0.51320313 9.89816406 -0.75296875 10.44085938 -1 11 C-1.33 11 -1.66 11 -2 11 C-2.19622241 6.78121808 -1.80230168 3.82989106 0 0 Z " fill="#1DA8F4" transform="translate(116,15)"/>
<path d="M0 0 C0.66 1.32 1.32 2.64 2 4 C1.34 4 0.68 4 0 4 C0 5.32 0 6.64 0 8 C-0.66 7.67 -1.32 7.34 -2 7 C-2.625 4.4375 -2.625 4.4375 -3 2 C-2.01 2 -1.02 2 0 2 C0 1.34 0 0.68 0 0 Z " fill="#3D8FC7" transform="translate(182,41)"/>
<path d="M0 0 C0 0.66 0 1.32 0 2 C1.32 2 2.64 2 4 2 C4 2.66 4 3.32 4 4 C1.36 3.67 -1.28 3.34 -4 3 C-4 2.34 -4 1.68 -4 1 C-2 0 -2 0 0 0 Z " fill="#26A3ED" transform="translate(71,113)"/>
</svg>
